<svg version="1" xmlns="http://www.w3.org/2000/svg" width="1600" height="1600" viewBox="0 0 1200.000000 1200.000000"><path d="M385.4 1.9c-8.3 2.3-21.1 8.1-30.9 14.1-6.2 3.8-25.2 17.4-26.5 19-.3.4-4.3 4-9 8-50.2 43.6-120.1 133.1-155.7 199.5-14.6 27.1-49.3 97.6-49.3 100.1 0 .3-1.5 3.7-3.4 7.7-15 31.8-39.5 97.1-52 138.7-8.9 29.6-18.6 68.9-22 89-.2 1.4-1.1 6.3-1.9 11-.9 4.7-1.9 10.5-2.2 13-.3 2.5-1 7.2-1.5 10.5-1 7-1.7 12.2-2.5 18.5-1.1 9.3-1.4 12.7-2 21.5-.4 4.9-.8 11-1 13.5-.6 6.2-.6 70.1 0 83 .5 13.3 1.4 27.2 2 33 .3 2.5.7 6.7 1 9.5 3.3 30 10.9 52.1 25.8 74.5 5.9 8.8 14.8 21.1 16.7 23 .3.3 3.2 3.9 6.5 8s6.9 8.6 8.1 10c1.2 1.4 5.2 6.1 9 10.5 25.4 29.8 50.5 49.3 74.4 57.8 13.7 4.9 19.2 5.7 35.5 5.2 8.3-.2 16.4-.6 18-.9 57.9-10 137-50.2 216-110 21.6-16.3 43.4-35.6 46.1-40.7 1.8-3.6 1.2-5.2-7.5-17.3-8.6-12-9.1-13.9-4.3-18.9 1.5-1.6 5.7-4.8 9.3-7.2 11.9-7.9 13.1-11.5 7.9-24.5-4-10.1-3.8-12.5 1.1-19.9 2.2-3.3 4.5-6.3 5-6.6 2.5-1.6 0-10.5-3-10.5-1.1 0-25.4 18.8-27.1 20.9-1.3 1.7-23.5 17.3-31.8 22.4-20 12.4-77.4 38.8-100.2 46.2-20.5 6.6-32.9 8.8-49.5 8.7-34.2-.1-64.5-15.9-84.6-44.1-15.6-21.9-24-48.5-24.1-76-.1-8.6.9-29.9 1.6-35.6.5-3.8 1.7-15 2.1-19.3.2-1.8.6-4.5.9-6 .3-1.5.8-4.9 1.1-7.5.3-2.6 1-7.1 1.6-10 .5-2.9 1.2-6.8 1.4-8.8 3-23 22.3-105.7 33-140.9.7-2.5 2.3-7.7 3.4-11.5 6.8-23.4 21.9-70.8 26.1-82 1.1-2.8 4.9-13.3 8.5-23.5 18.5-51.6 42.1-106.2 59.7-138 18.2-32.9 31.3-47.1 41.6-44.9 15.3 3.2 22.5 27.2 17.7 58.4-.7 4.5-5.2 29.1-8.9 49.1-2.2 11.3-4.6 25.8-5.1 30.9-1.2 11.5-1.5 15-2.1 22-.3 3.8-.7 7.2-.9 7.5-.2.3-.6 3-1 6-1 7.9-7.6 33.2-13 49.5-4.9 14.9-5.7 21.3-3.1 26.4 1.8 3.3 3 4 6.9 3.5 4.4-.4 9.3-4.8 12.1-10.8 2.5-5.2 2.8-5.5 7.1-6.2 8.7-1.3 8.4-.6 18.1-33.4 5.1-17 10.6-24.8 16.5-23.3 3.4.9 4.3 4.3 4.2 16-.1 9.2.2 11.7 1.8 14.2 3.3 5.5 10.2 6.6 17.9 2.8 5.8-2.9 10-8.6 13.5-18.3 6-17 8.1-19.8 14.1-19.6 3.7.2 7.2 2.2 13.2 7.9 7.8 7.2 15.9 8.8 22.6 4.3 9.1-6.1 20.6-30.4 24-50.5.3-1.7 1-5.2 1.5-7.9.5-2.6.9-12.3.9-21.5 0-9.1.3-18 .6-19.6.2-1.7.8-5 1.1-7.5.3-2.5 1.5-10.4 2.6-17.5 1.1-7.2 2.5-15.9 3-19.5.5-3.6 1.1-7.6 1.4-9 .7-4.5 1.7-13 3-25.5.7-6.2.7-24.6 0-29-.5-3.5-1.5-9.2-3.1-17.5-2.7-14.1-14.8-40.3-22-47.7-1.2-1.2-6-7.7-30.4-40.7-22.8-30.9-35.2-41.1-56-46.3-.8-.2-6.2-.6-12-.9-8.3-.3-12 0-17.6 1.5zM762.4 3.6c-7.1 7.5-13 23.7-26.3 71.9-10.2 36.9-11.3 39.7-17.6 45.8-5.4 5.2-12 7.8-62.4 24.6-18.4 6.2-40.9 14.1-50 17.7-32 12.7-48.4 23.1-49.8 31.6-.8 5.3 2.3 7.9 13 11.2 6.4 2 9.2 3.4 11.1 5.6 4.2 5.1 2.7 8-8.3 15.5-9.6 6.6-12 10.7-10.6 18.3 1 5.1 4.9 8 13.9 9.9 14.1 3 16.7 8.2 9 17.4-2.4 2.8-4.4 5.9-4.4 7 0 3 2.4 7 6.9 11.4 6.6 6.3 5.6 8.9-5.7 15.4-10.2 5.7-13.1 13.4-7.3 19.1 2.3 2.3 3.5 2.8 6.2 2.4 9.1-1.3 21.4-6.9 47.8-21.8 34.5-19.6 44.2-22.2 48.5-13.2 2.2 4.6 1.4 17.1-1.9 27.6-2.3 7.5-9.3 40.5-11 51.5-.3 2.2-.8 5.1-1 6.5-3.4 20.4-5.1 31.2-5.9 37.7-.2 1.5-.9 5.5-1.4 8.8-.6 3.3-1.4 8.2-1.7 11-.3 2.7-.8 5.7-1 6.5-.2.8-.7 3.7-1 6.5-.3 2.7-.9 7.5-1.4 10.5-.6 3-1.3 7.7-1.6 10.5-.3 2.7-1 7.7-1.5 11-1.5 10-1.9 12.8-2.5 18-.3 2.7-1 7.5-1.5 10.5s-1.2 8-1.5 11c-.6 5.7-1.2 9.7-2 14-.2 1.4-.7 5-1 8-.3 3-.8 6.6-1 8-.2 1.4-.7 4.9-1 7.9-.4 3-.8 6.1-1 7-.1.9-.6 4.5-1 8.1-.4 3.6-.8 6.7-1 7-.1.3-.6 3.6-1 7.3-.3 3.7-.8 7.8-1.1 9-.2 1.2-.6 4.2-.9 6.7-.2 2.5-.7 6.1-.9 8-.3 1.9-.8 5.5-1.1 8-.3 2.5-.8 5.6-1 7-.4 2.3-.6 4.3-2 16.7-.3 2.7-1 7.9-1.5 11.8-.6 3.8-1.2 9-1.5 11.5-.3 2.5-.7 6.1-1 8-.2 1.9-.7 5.3-1 7.5-.2 2.2-1.1 9.6-2 16.5-2.2 17.5-2.3 18.8-3 25-.4 3-.8 6.6-1 8-.2 1.4-.7 5.4-1 9-.4 3.6-.9 7.4-1.1 8.5-.2 1.1-.6 4.5-1 7.5-.3 3-.7 6.6-.9 8-.2 1.4-.6 5-1 8-.3 3-.8 7.3-1.1 9.5-.3 2.2-.7 5.6-.9 7.5-.2 1.9-.7 6-1 9-.3 3-.8 6.6-1 8-.2 1.4-.7 5.4-1 9-.3 3.6-.8 7.6-1 9-.2 1.4-.9 7.2-1.5 13s-1.3 11.8-1.5 13.5c-2 14.1-2.1 28.1-.4 33.3 1.7 5.1 4.5 7.4 8.9 7 3-.3 4-1 6.7-5.3 7-11 9.1-12.4 14.5-9.8 4.8 2.3 6.2 6.5 6.2 18.8 0 6-.3 15.1-.8 20.1-1.1 13.7 1.5 20.4 8.5 21.6 3.9.7 6.9-1.3 10-6.8 3.1-5.6 7.9-8.2 11.3-6 1 .6 3.9 5.8 6.5 11.5 5.6 12.6 8.1 15 13.9 13.3 4.1-1.2 6.3-4.7 9.2-14 2.7-8.7 8.3-11.5 13.7-6.8l2.8 2.4-.1 13.4c-.1 7.3-.3 18.9-.5 25.8-.3 11.1-.1 12.9 1.6 15.9 3.1 5.2 6.6 7.3 12.8 7.7 12.1.7 18.7-7.5 21.2-26.6.3-2.5.8-5.6 1-7 .5-3.4 1.4-19.7 2-36.5.3-7.7.7-14.9.9-16 .2-1.1.7-5.4 1.1-9.5.4-4.1.8-8.2 1-9 .1-.8.6-4.6 1-8.3.3-3.7.8-7.7 1-8.7.2-1 .6-4.7 1-8.2.3-3.5.7-7.4 1-8.8.2-1.4.7-5 1-8 .4-3 .8-6.6 1-8 .2-1.4.7-5.4 1-9 .4-3.6.9-7.4 1.1-8.5.2-1.1.6-4.3.9-7 .3-2.8.8-6.7 1-8.8.3-2 .7-5.4 1-7.5.2-2 .9-7.5 1.5-12.2 1.7-13.7 1.9-15.2 2.5-20.5.4-2.8.8-6.1 1-7.5.2-1.4.7-5.2 1.1-8.5.3-3.3.8-6.7.9-7.5.2-.8.6-4.4 1-8 .3-3.6.8-7.6 1-9 .6-4.1 2.4-18.1 3-24 .4-3 .8-6.6 1-8 .2-1.4.6-5.2 1-8.5 1.1-9.9 1.5-11.7 3.5-14.5 4.4-6.1 16.8-12.2 34.1-16.6 28.5-7.2 51.9-9.1 85.9-7.1 12.1.7 12.9.8 25.5 3.3 36.5 7.1 54.1 30.6 55 73.5.4 20.2-2.4 36.3-11.1 63.1-4.1 12.5-12.7 34.7-18.4 47.3-1.3 2.7-3.4 7.5-4.7 10.5-5.9 13.4-8.4 18.6-18 38-14.2 28.4-24.5 46.9-38 67.8-2.9 4.5-5.3 8.5-5.3 8.8 0 .3-.5 1-1 1.7-.6.7-5.4 7.5-10.7 15.2-5.3 7.7-16.2 22.8-24.4 33.6-18.3 24.5-24.2 33-27.5 40.4-5.1 11-2.5 19.5 5.8 19.5 2.2 0 5.1-.6 6.6-1.4 2.6-1.3 5.9-1.9 9.3-1.7 4.9.3 6.8 6.2 4.4 13.2-.8 2.2-4 7.7-7.1 12.1-6.9 9.7-8.1 15.4-4.4 20.1 6.3 8 20.5 7.5 38-1.3 4.4-2.2 9-4 10.3-4 5.1 0 10.2 10.3 7.6 15.3-.7 1.2-5.6 6.7-10.9 12.2-10.8 11.3-13 14.9-13 21.1 0 8.7 3.6 12.1 11.8 11.1 3.1-.4 6.6-1.7 9.4-3.6 4.4-3 9-3.9 11.4-2.3 2 1.3 3.4 5 3.4 8.7 0 3.7-2.9 7.7-7.4 10.2-2.4 1.3-3 9.6-.9 13.8 5.1 10 10.3 9.9 20.1-.4 5.9-6.2 11.4-14.1 21.2-30.6 4.5-7.7 9.3-15.7 10.6-17.7 1.3-2.1 2.4-4 2.4-4.3 0-1.1 11-17.5 19.2-28.5 13.2-17.8 26.4-37.2 40.8-59.5 8.9-14 37.6-61.5 39.1-64.9.5-1.2 1.7-3.5 2.7-5.1 1.9-3.1 6.6-11.7 13.4-24.5 5.6-10.4 20.1-39.5 23.9-47.7 1.7-3.7 4.1-9.1 5.4-11.8 8.6-18.3 28.3-67.3 29.9-74 .1-.6 2.1-6.6 4.3-13.5 7.5-22.7 17-59.4 18.7-72 .3-2.5 1.3-7.9 2.1-12.2.8-4.2 1.7-10.2 2-13.5.3-3.2.8-8.2 1.1-11.2 1.3-10.6 1.8-37.5 1-47.6-2.7-33-10.1-56.6-24.6-79-5.9-9-20.8-24.2-29-29.6-14.4-9.5-30.1-15.6-47.8-18.5-9.7-1.6-36.5-2.3-42.7-1-1.6.3-7.8.9-13.6 1.2-12 .7-14.3 0-16.4-4.9-2.6-6.3.8-11.2 28.3-39.6 4.6-4.7 14.8-15.1 22.5-23.2 7.8-8 18.5-19.2 23.7-25 5.2-5.7 9.7-10.6 10-10.9 1.1-1 17.6-20.6 21.5-25.5 2.2-2.8 4.4-5.5 5-6.2 8.6-10.3 28-38.2 37.8-54.4 6.5-10.8 18-33 21.7-41.9 1.7-4.1 3.7-8.9 4.5-10.5 4.9-10.8 14.1-42.8 16.1-56 .5-2.8.9-5.2.9-5.5.2-.7 1.4-10.6 2.1-16.5.7-7 .7-27.5-.1-33.3-2.1-14.9-9.2-36.6-17.1-52.3-29.4-58.7-81.9-103.1-121.9-103.1-13.2 0-38.3 7.4-99 29.2-44.5 15.9-67.1 23.2-75.1 24.3-4.1.6-3.7.9-15.6-12.1-7.2-7.9-11.5-7.1-18.8 3.3-5 7.1-9.7 10.3-12.9 8.6-3.5-1.9-3.6-6.9-.5-20 .8-3.6 1.8-7.5 2-8.6.9-3.7.5-11.6-.7-15.3-2.6-8-9.9-10.3-19.4-6.2-6 2.6-9.6 3.2-11.1 1.9-1.1-.9-4.3-9.8-4.3-12.2-.1-1.8-3.3-6.7-5.7-8.6-4.1-3.2-8.1-2.7-12 1.5zm228.9 184c1.5.8 4.6 3.3 6.8 5.6 12.4 12.8 14.5 37.7 5.4 64.4-7.8 22.7-22.9 48.6-46.2 79.1-28.4 37.2-72.1 82.6-118.3 122.9-13.1 11.5-43.9 36.4-45 36.4-.4 0-1.1-1.5-1.7-3.4-.8-2.6-.6-6.1.9-14.8 2.5-15.2 3.7-21.9 4.2-24.4.2-1.2.7-3.8 1-5.9.4-2.1 1.5-8.8 2.6-14.9s2.2-12.7 2.5-14.6c.4-1.9 1.3-7.3 2.1-12s1.7-9.9 2-11.5c.2-1.7.9-5.5 1.4-8.5.6-3 1.2-6.6 1.5-8 .2-1.4.7-3.9 1-5.5.3-1.7.9-5.7 1.5-9 .5-3.3 1.2-7.1 1.5-8.5.6-2.7 1-5 2-12 .4-2.5.9-5.4 1.1-6.5.5-2.6 1.1-5.8 3.4-19 2.4-14.1 2.9-16.5 3.5-19.5.2-1.3.7-4 1-6 .3-2 .7-4.7 1-6 .7-3.8 2.4-13.1 3-17 .3-1.9 1.2-6.9 2-11s1.6-8.5 1.8-9.8c1.6-11.4 55.2-40.4 102.6-55.6 14.9-4.8 26.1-7.5 34.1-8.3 3.6-.3 6.6-.7 6.8-.8.6-.5 11.6 2.7 14.5 4.1z"/></svg>