<svg version="1" xmlns="http://www.w3.org/2000/svg" width="682.667" height="682.667" viewBox="0 0 512.000000 512.000000"><path d="M231.5 1.1c-88 9-164.2 61.2-204.2 139.9-37.5 73.9-36 165 4 237.5 23.8 43.2 59 78.4 102.2 102.2 26.8 14.8 57.3 24.7 91 29.5 11.8 1.7 51.2 1.7 63 0 59.8-8.5 109.5-33.1 150.2-74.3 40.4-40.8 64.1-89.4 72.5-148.4 1.7-11.8 1.7-51.2 0-63-8.4-59.2-32.8-108.8-73.3-149.4C397.3 35.6 348.8 11.3 292 2.5 279.5.6 244.3-.3 231.5 1.1zm51.3 96.1c.9.9 1.2 6.9 1.2 20.8 0 10.7.4 20 .8 20.6.4.7 4.3 2.4 8.7 3.9 4.4 1.4 11.7 4.4 16.2 6.6 6.3 3.1 8.6 3.8 10 3 1-.5 7.6-6.8 14.8-14 7.1-7.2 13.6-13.1 14.5-13.1 1.9 0 38 36 38 37.9 0 .8-6.3 7.8-14 15.6-7.7 7.7-14 14.5-14 15s1.8 4.5 3.9 9c2.2 4.4 5.2 11.6 6.6 16 1.5 4.4 3.2 8.3 3.9 8.7.6.4 9.9.8 20.7.8 13.8 0 19.8.3 20.7 1.2 1.7 1.7 1.7 51.9 0 53.6-.9.9-6.9 1.2-20.9 1.2-14.5 0-19.9.3-20.6 1.3-.5.6-2.2 4.8-3.8 9.2-1.5 4.4-4.3 11-6.1 14.7-1.9 3.7-3.4 7.6-3.4 8.5 0 1 5.9 7.7 13.1 14.8 7.2 7.2 13.5 13.8 14.1 14.9.9 1.6-1.5 4.4-17.8 20.7-10.4 10.4-19.3 18.9-19.9 18.9-.6 0-7.3-6.3-15-14s-14.6-14-15.3-14c-.7 0-4.3 1.5-8 3.4-3.7 1.8-10.7 4.8-15.6 6.5-5 1.8-9.6 3.7-10.3 4.3-1 .8-1.3 5.8-1.3 20.7 0 14-.3 20-1.2 20.9-1.8 1.8-52.1 1.7-53.7-.1-.7-.9-1.2-8.8-1.3-21.8l-.3-20.3-10-3.7c-5.5-2-12.8-5-16.2-6.7-3.4-1.8-6.8-3.2-7.4-3.2-.7 0-7.6 6.3-15.4 14-7.7 7.7-14.7 14-15.5 14-1.9 0-38-36-38-37.9 0-.8 6.3-7.8 14-15.6 7.7-7.7 14-14.5 14-15s-1.8-4.5-3.9-9c-2.2-4.4-5.2-11.6-6.6-16-1.5-4.4-3.2-8.3-3.9-8.7-.6-.4-9.9-.8-20.6-.8-13.9 0-19.9-.3-20.8-1.2-1.7-1.7-1.7-51.9 0-53.6.9-.9 6.9-1.2 20.8-1.2 10.7 0 20-.4 20.6-.8.7-.4 2.4-4.3 3.9-8.7 1.4-4.4 4.4-11.7 6.6-16.2 3.1-6.3 3.8-8.6 3-10-.5-1-6.8-7.6-14-14.8-7.2-7.1-13.1-13.6-13.1-14.5 0-1.9 36-38 37.9-38 .8 0 7.8 6.3 15.6 14 7.7 7.7 14.5 14 15 14s4.5-1.8 9-3.9c4.4-2.2 11.6-5.2 16-6.6 4.4-1.5 8.3-3.2 8.7-3.9.4-.6.8-9.9.8-20.7 0-13.8.3-19.8 1.2-20.7 1.7-1.7 51.9-1.7 53.6 0z"/><path d="M243.4 185c-14.4 2.6-26.6 9.2-37.9 20.5-9.1 9.1-14.4 17.5-18.2 29-2.3 7.1-2.6 9.6-2.6 21.5s.3 14.4 2.6 21.5c3.8 11.5 9.1 19.9 18.2 29 9.3 9.3 16 13.5 28.2 17.8 8.2 2.9 9.8 3.1 22.3 3.1s14.1-.2 22.3-3.1c12.2-4.3 18.9-8.5 28.2-17.8s13.5-16 17.8-28.2c2.9-8.2 3.1-9.8 3.1-22.3s-.2-14.1-3.1-22.3c-4.3-12.2-8.5-18.9-17.8-28.2-13.9-13.9-28.3-20.3-47.5-21-5.8-.2-12.8 0-15.6.5z"/></svg>