<svg version="1.1" id="foot-logo" xmlns="http://www.w3.org/2000/svg" xmlns:xlink="http://www.w3.org/1999/xlink" x="0px" y="0px" width="34.286px" height="38.033px" viewBox="0 0 34.286 38.033">
<g id="Logo_2">
	<g>
		<g>
			<path fill="#FFFFFF" d="M17.143,37.254c-0.739,0-1.445-0.172-1.986-0.484L2.766,29.614c-1.114-0.643-1.986-2.154-1.986-3.44
				V11.86c0-1.287,0.873-2.798,1.986-3.44l12.391-7.156c0.542-0.312,1.247-0.484,1.986-0.484s1.445,0.172,1.986,0.484L31.52,8.42
				c1.114,0.643,1.986,2.154,1.986,3.44v14.313c0,1.287-0.873,2.798-1.986,3.44L19.129,36.77
				C18.588,37.082,17.882,37.254,17.143,37.254z"/>
			<path fill="#053863" d="M17.143,1.558c0.579,0,1.158,0.127,1.597,0.38L31.13,9.095c0.878,0.507,1.597,1.751,1.597,2.766v14.313
				c0,1.014-0.718,2.259-1.597,2.766L18.74,36.095c-0.439,0.253-1.018,0.38-1.597,0.38s-1.158-0.126-1.597-0.38L3.155,28.939
				c-0.878-0.507-1.597-1.751-1.597-2.766V11.86c0-1.014,0.718-2.259,1.597-2.766l12.391-7.156
				C15.985,1.685,16.564,1.558,17.143,1.558 M17.143,0c-0.874,0-1.718,0.209-2.375,0.588L2.376,7.745C1.021,8.526,0,10.296,0,11.86
				v14.313c0,1.564,1.022,3.334,2.376,4.116l12.391,7.155c0.658,0.38,1.502,0.589,2.376,0.589s1.718-0.209,2.375-0.589l12.391-7.156
				c1.354-0.781,2.376-2.551,2.376-4.115V11.86c0-1.564-1.021-3.334-2.376-4.116l-12.39-7.156C18.861,0.209,18.017,0,17.143,0
				L17.143,0z"/>
		</g>
		<g id="CITY_1_">
			<path fill="#053863" d="M10.058,26.659l-0.28,0.215c-0.155-0.201-0.34-0.354-0.556-0.458c-0.216-0.104-0.454-0.155-0.713-0.155
				c-0.283,0-0.545,0.068-0.786,0.204s-0.428,0.319-0.561,0.548c-0.132,0.229-0.199,0.487-0.199,0.773
				c0,0.432,0.148,0.793,0.445,1.083c0.297,0.29,0.671,0.435,1.123,0.435c0.497,0,0.913-0.194,1.247-0.583l0.28,0.212
				c-0.177,0.225-0.397,0.399-0.662,0.522s-0.56,0.184-0.887,0.184c-0.62,0-1.11-0.207-1.468-0.62
				C6.74,28.668,6.59,28.247,6.59,27.754c0-0.52,0.182-0.957,0.546-1.311c0.365-0.355,0.82-0.532,1.369-0.532
				c0.332,0,0.631,0.066,0.897,0.197C9.669,26.239,9.888,26.422,10.058,26.659z"/>
			<path fill="#053863" d="M14.297,26h0.354v3.548h-0.354V26z"/>
			<path fill="#053863" d="M19.341,26.348V26h1.944v0.347h-0.791v3.201h-0.362v-3.201H19.341z"/>
			<path fill="#053863" d="M25.077,26h0.408l0.907,1.463L27.286,26h0.41l-1.124,1.852v1.696h-0.35v-1.696L25.077,26z"/>
		</g>
		<g>
			<rect x="0.39" y="14.058" fill="#053863" width="33.506" height="9.917"/>
			<path fill="#053863" d="M33.506,14.448v9.138H0.779v-9.138H33.506 M34.286,13.668H0v10.696h34.286V13.668L34.286,13.668z"/>
		</g>
		<g id="SPACE_1_">
			<path fill="#FFFFFF" d="M3.81,22.053c-0.211,0-0.304-0.093-0.304-0.304v-0.986c0-0.211,0.093-0.303,0.304-0.303h2.269
				c0.144,0,0.22-0.11,0.22-0.245c0-0.194-0.076-0.27-0.22-0.287L4.813,19.75c-0.792-0.118-1.307-0.456-1.307-1.4v-0.886
				c0-0.961,0.649-1.484,1.746-1.484h2.361c0.211,0,0.304,0.093,0.304,0.304v1.003c0,0.211-0.093,0.304-0.304,0.304H5.648
				c-0.143,0-0.227,0.102-0.227,0.253c0,0.152,0.084,0.253,0.227,0.27l1.257,0.168c0.793,0.118,1.316,0.456,1.316,1.4v0.885
				c0,0.962-0.658,1.485-1.746,1.485H3.81z"/>
			<path fill="#FFFFFF" d="M9.444,22.053c-0.211,0-0.304-0.093-0.304-0.304v-5.464c0-0.211,0.093-0.304,0.304-0.304h2.581
				c1.535,0,1.99,0.667,1.99,1.645v1.08c0,0.979-0.455,1.645-1.99,1.645h-0.97v1.399c0,0.211-0.093,0.304-0.304,0.304H9.444z
				 M11.038,18.831h0.759c0.329,0,0.396-0.193,0.396-0.413v-0.447c0-0.219-0.067-0.414-0.396-0.414h-0.759V18.831z"/>
			<path fill="#FFFFFF" d="M16.224,22.053h-1.24c-0.211,0-0.304-0.093-0.304-0.304v-2.226c0-0.337,0.102-0.759,0.329-1.349
				l0.733-1.915c0.067-0.194,0.202-0.278,0.431-0.278h2.269c0.219,0,0.354,0.084,0.421,0.278l0.734,1.915
				c0.228,0.59,0.329,1.012,0.329,1.349v2.226c0,0.211-0.093,0.304-0.304,0.304h-1.273c-0.228,0-0.329-0.093-0.329-0.304v-1.181
				h-1.493v1.181C16.527,21.96,16.435,22.053,16.224,22.053z M16.611,19.033h1.324l-0.396-1.281
				c-0.042-0.102-0.093-0.144-0.16-0.144h-0.211c-0.068,0-0.118,0.042-0.16,0.144L16.611,19.033z"/>
			<path fill="#FFFFFF" d="M22.945,22.053c-1.417,0-2.075-0.548-2.075-1.721v-2.623c0-1.181,0.658-1.729,2.075-1.729h2.058
				c0.21,0,0.303,0.093,0.303,0.304v1.02c0,0.211-0.093,0.304-0.303,0.304h-1.695c-0.355,0-0.515,0.135-0.515,0.422v2.007
				c0,0.278,0.16,0.404,0.515,0.404h1.695c0.21,0,0.303,0.093,0.303,0.304v1.002c0,0.211-0.093,0.304-0.303,0.304H22.945z"/>
			<path fill="#FFFFFF" d="M26.562,22.053c-0.21,0-0.303-0.093-0.303-0.304v-5.464c0-0.211,0.093-0.304,0.303-0.304h3.914
				c0.211,0,0.303,0.093,0.303,0.304v0.986c0,0.211-0.092,0.303-0.303,0.303h-2.328v0.649h1.645c0.211,0,0.304,0.093,0.304,0.304
				v0.903c0,0.211-0.093,0.303-0.304,0.303h-1.645v0.726h2.328c0.211,0,0.303,0.092,0.303,0.303v0.986
				c0,0.211-0.092,0.304-0.303,0.304H26.562z"/>
		</g>
	</g>
	<g id="Rocket">
		<path fill="#053863" d="M15.398,8.527c0,0-0.766,0.762-0.891,0.891c-0.092,0.096-0.115,0.123-0.136,0.26
			c-0.021,0.132-0.313,2.455-0.313,2.578s0.089,0.197,0.226,0.088c0.137-0.109,1.567-1.25,1.567-1.25L15.398,8.527z"/>
		<path fill="#053863" d="M17.184,3.414c-0.452,0-1.786,2.143-1.786,4.555s0.482,4.198,1.786,4.198c1.304,0,1.787-1.786,1.787-4.198
			S17.637,3.414,17.184,3.414z"/>
		<path fill="#053863" d="M18.888,8.527c0,0,0.766,0.762,0.891,0.891c0.092,0.096,0.116,0.123,0.136,0.26
			c0.021,0.132,0.313,2.455,0.313,2.578s-0.089,0.197-0.226,0.088c-0.137-0.109-1.567-1.25-1.567-1.25L18.888,8.527z"/>
		<circle fill="#053863" cx="17.184" cy="2.565" r="0.402"/>
		<circle fill="#FFFFFF" cx="17.184" cy="7.221" r="0.748"/>
	</g>
</g>
</svg>