<svg version="1.1" id="main-logo" xmlns="http://www.w3.org/2000/svg" xmlns:xlink="http://www.w3.org/1999/xlink" x="0px" y="0px" width="144.06px" height="32px" viewBox="0 0 144.06 32">

<g id="strokes">
	<path id="stroke-1" fill="#515050" d="M5.04,26.345c-1.67,0-2.885-1.513-3.611-2.417l-0.087-0.108C0.254,22.447,0,21.793,0,18.502
		c0-4.336,2.026-8.99,3.726-12.131C4.482,4.967,7.885,0,10.198,0c1.205,0,1.8,0.831,2.431,1.711
		c0.178,0.247,0.367,0.512,0.585,0.782c0.524,0.648,0.759,1.637,0.759,2.33c0,0.517-0.107,1.189-0.202,1.784
		c-0.06,0.374-0.134,0.838-0.124,0.973c0.089,0.683-0.175,1.896-0.668,2.457c-0.258,0.293-0.526,0.355-0.707,0.355
		c-0.276,0-0.473-0.111-0.613-0.221c-0.119,0.334-0.364,0.871-1.041,0.871c-0.229,0-0.389-0.074-0.496-0.157
		c-0.101,0.329-0.212,0.562-0.482,0.652c-0.02,0.012-0.054,0.022-0.093,0.03c-0.239,0.429-0.609,0.482-0.777,0.482
		c-0.384,0-0.662-0.347-0.662-0.825c0-0.151,0.051-0.305,0.136-0.56c0.14-0.419,0.374-1.121,0.416-1.999
		c0.017-0.262,0.104-0.716,0.204-1.242c0.091-0.479,0.216-1.134,0.216-1.334c0-0.269-0.046-0.452-0.087-0.548
		c-1.062,1-4.102,9.126-4.102,13.125c0,1.074,0.73,2.587,2.353,2.587c0.832,0,1.822-0.477,2.618-0.859l0.415-0.197
		c0.648-0.295,1.255-0.791,1.619-1.088c0.338-0.276,0.479-0.391,0.702-0.391c0.061,0,0.597,0.02,0.597,0.696
		c0,0.198-0.103,0.329-0.193,0.444c-0.013,0.017-0.032,0.041-0.049,0.063c0.008,0.021,0.019,0.044,0.026,0.062
		c0.05,0.114,0.119,0.271,0.119,0.47c0,0.389-0.294,0.611-0.5,0.748c0.157,0.207,0.304,0.403,0.304,0.648
		C12.902,22.689,7.742,26.345,5.04,26.345z"/>
	<path id="stroke-2" fill="#515050" d="M16.263,26.15c-0.812,0-1.923-0.708-2.7-1.723c-0.811-1.061-1.173-1.797-1.173-3.359
		c0-4.31,1.91-7.656,5.838-10.23l0.177-0.116l0.074,0.017l0.185-0.157c0.402-0.34,1.245-0.833,1.718-0.833
		c1.373,0,2.676,1.299,3.375,2.411c0.919,1.418,0.919,3.016,0.919,3.97c0,3.682-3.397,8.593-5.798,9.512l0.2,0.126l-1.225,0.244
		C17.472,26.088,17.089,26.15,16.263,26.15z M19.041,14.68c-0.955,0.024-1.954,3.085-1.954,4.439c0,1.165,0.189,2.554,1.089,2.554
		c1.412,0,1.998-3.146,1.998-4.829c0-0.717-0.12-1.206-0.366-1.494C19.461,14.933,19.15,14.708,19.041,14.68z"/>
	<path id="stroke-3" fill="#515050" d="M27.517,26.671c-1.305,0-2.59-2.976-2.603-3.006c-0.227-0.53-0.266-1.42-0.266-3.213
		c0-2.993,0.985-7.423,1.855-11.332c0.486-2.186,0.906-4.073,1.068-5.337c0.109-0.785,0.583-3.329,2.118-3.329
		c0.453,0,0.771,0.263,0.862,0.689c0.035-0.004,0.071-0.006,0.109-0.006c0.307,0,0.666,0.123,0.773,0.658
		c0.033-0.006,0.067-0.009,0.104-0.009c1.243,0,1.96,3.808,1.96,5.017c0.001,3.736-0.716,6.916-2.258,10.004
		c-0.149,0.298-0.398,0.797-0.966,0.797c-0.055,0-0.475-0.015-0.597-0.438c-0.2,1.281-0.331,2.54-0.331,3.707
		c0,0.044,0.005,0.082,0.011,0.111c0.586-0.085,1.621-0.94,2.075-1.316c0.431-0.356,0.561-0.464,0.787-0.464
		c0.222,0,0.598,0.133,0.598,0.629c0,0.266-0.162,0.465-0.319,0.657c-0.059,0.072-0.156,0.191-0.174,0.241
		c0.103,0.081,0.194,0.219,0.201,0.409c0.292,0.11,0.488,0.378,0.488,0.707C33.012,23.111,28.955,26.671,27.517,26.671z
		 M30.131,14.682c-0.114,0.561-0.223,1.125-0.322,1.688c0.085-0.195,0.212-0.47,0.4-0.873c0.078-0.166,0.17-0.364,0.257-0.554
		C30.333,14.9,30.211,14.812,30.131,14.682z M31.525,8.153c-0.083,0.308-0.17,0.771-0.221,1.037L31.25,9.47
		c-0.159,0.813-0.355,1.7-0.562,2.63c-0.09,0.408-0.183,0.823-0.274,1.244c0.261-0.638,0.623-1.71,0.857-3.268
		c0.028-0.186,0.061-0.373,0.094-0.56c0.082-0.463,0.159-0.9,0.159-1.347C31.525,8.164,31.525,8.159,31.525,8.153z"/>
	<path id="stroke-4" fill="#515050" d="M36.015,26.15c-0.812,0-1.923-0.708-2.7-1.723c-0.811-1.06-1.172-1.796-1.172-3.359
		c0-4.31,1.909-7.656,5.836-10.23l0.176-0.116l0.076,0.017l0.186-0.157c0.401-0.34,1.243-0.833,1.717-0.833
		c1.769,0,3.122,2.008,3.375,2.411c0.92,1.418,0.92,3.016,0.92,3.97c0,3.68-3.394,8.588-5.795,9.51l0.202,0.128l-1.232,0.244
		C37.223,26.088,36.839,26.15,36.015,26.15z M38.793,14.68c-0.955,0.024-1.954,3.085-1.954,4.439c0,1.165,0.189,2.554,1.089,2.554
		c1.412,0,1.998-3.146,1.998-4.829c0-0.717-0.12-1.206-0.367-1.493C39.202,14.919,38.89,14.706,38.793,14.68z"/>
	<path id="stroke-5" fill="#515050" d="M47.755,26.346c-0.221,0-1.755-0.216-1.796-1.082c-0.037,0.007-0.076,0.01-0.117,0.01
		c-0.433,0-1.441-0.191-1.441-1.961c0-4.35,0.667-9.273,1.74-12.85c0.062-0.32,0.431-0.713,0.9-0.713
		c0.72,0,1.084,1.145,1.084,1.377c0,0.009,0,0.019,0,0.028c0.038-0.005,0.077-0.008,0.118-0.008c0.298,0,1.001,0.36,1.104,0.917
		c0.03-0.004,0.062-0.007,0.096-0.007c0.384,0,0.954,0.374,0.954,0.89c0,0.534-0.251,1.242-0.543,2.062
		c-0.051,0.144-0.103,0.29-0.155,0.438c0.459-0.531,0.992-0.92,1.592-0.92c0.453,0,1.538,0.33,1.538,1.148
		c0,0.087-0.008,0.171-0.021,0.25c0.423,0.037,0.864,0.464,0.864,0.856c0,0.897-0.33,1.735-0.725,2.416
		c0.265-0.058,0.587-0.168,0.78-0.265l0.724-0.363v0.811c0,0.396-0.128,0.667-0.297,0.854l0.386-0.155l-0.058,0.8
		c-0.125,1.734-2.676,2.089-3.353,2.089c-0.958-0.001-1.555-0.42-1.973-0.938c-0.255,1.21-0.562,2.94-0.679,3.668
		C48.483,25.976,48.21,26.346,47.755,26.346z"/>
	<path id="stroke-6" fill="#515050" d="M72.211,32c-0.444,0-0.727-0.508-0.727-0.857c0-0.007,0-0.014,0-0.021
		c-0.392-0.024-0.682-0.356-0.682-0.791c0-0.183,0.055-0.341,0.136-0.48c-0.04,0.003-0.081,0.005-0.124,0.005
		c-0.482,0-0.89-0.363-0.89-0.793c0-0.189,0.058-0.343,0.129-0.466c-0.301-0.084-0.517-0.377-0.517-0.735
		c0-0.42,0.287-0.8,0.763-1.429c0.649-0.857,1.631-2.154,2.62-4.425c0.301-0.683,0.803-1.821,0.803-2.693
		c0-1.429-0.538-1.645-2.388-1.645c-0.521,0-1.619,0.202-1.879,0.409c-0.044,0.391-0.157,1.298-0.281,2.3
		c-0.194,1.563-0.436,3.51-0.455,3.811c-0.027,1.322-0.052,2.482-1.081,2.482c-0.535,0-0.922-0.388-0.922-0.922
		c0-0.082,0.003-0.164,0.007-0.246c-0.065,0.021-0.139,0.031-0.221,0.031c-0.318,0-0.507-0.201-0.627-0.41
		c-0.101,0.058-0.216,0.085-0.346,0.085c-0.439,0-0.759-0.36-0.759-0.856c0-0.114,0.008-0.229,0.019-0.343
		c-0.06,0.019-0.126,0.029-0.201,0.029c-0.759,0-0.759-0.816-0.759-1.085c0-0.091,1.464-12.867,2.002-14.383
		c-0.187,0.095-0.411,0.222-0.572,0.313c-0.655,0.372-1.08,0.598-1.448,0.598c-0.396,0-0.695-0.313-0.695-0.728
		c0-0.311,0.168-0.513,0.332-0.641c-0.062-0.101-0.105-0.221-0.105-0.368c0-0.088,0.018-0.165,0.045-0.232
		c-0.37-0.151-0.533-0.397-0.533-0.743c0-0.266,0.11-0.457,0.239-0.594c-0.187-0.106-0.367-0.288-0.367-0.608
		c0-0.727,1.025-1.145,3.2-1.863c0.455-0.15,1.021-0.337,1.141-0.412l0.085-0.092c0.02-0.058,0.151-0.543,0.247-0.897
		C67.799,0.833,68.057,0,68.708,0c0.413,0,0.617,0.28,0.721,0.513c0.06-0.017,0.122-0.026,0.188-0.026
		c0.373,0,0.806,0.24,0.824,0.912c0.017-0.001,0.034-0.002,0.052-0.002c0.351,0,0.565,0.254,0.698,0.424
		c0.333-0.088,1.054-0.346,1.604-0.543c1.429-0.512,2.329-0.823,2.79-0.823c1.995,0,4.132,2.868,4.132,4.887
		c0,3.449-2.79,6.28-4.288,7.801c-0.141,0.142-0.288,0.292-0.419,0.429c0.136-0.012,0.271-0.021,0.412-0.021
		c2.329,0,3.775,1.624,3.775,4.237c0,5.262-4.952,11.809-5.002,11.873c-0.148,0.189-0.332,0.505-0.51,0.811
		C73.188,31.325,72.796,32,72.211,32z M70.857,7.085c-0.152,0.835-0.458,2.599-0.744,4.249l-0.152,0.878
		c1.888-1.604,4.475-4.32,4.475-5.864c0-0.182-0.036-0.605-0.375-0.605C73.541,5.743,71.584,6.453,70.857,7.085z"/>
	<path id="stroke-7" fill="#515050" d="M82.297,26.671c-1.307,0-2.59-2.976-2.603-3.006c-0.226-0.527-0.265-1.418-0.265-3.213
		c0-2.992,0.984-7.42,1.854-11.327c0.486-2.188,0.906-4.077,1.068-5.342c0.11-0.786,0.586-3.329,2.119-3.329
		c0.452,0,0.771,0.263,0.861,0.689c0.035-0.004,0.071-0.006,0.109-0.006c0.307,0,0.665,0.123,0.773,0.657
		c0.033-0.005,0.067-0.008,0.104-0.008c1.242,0,1.959,3.808,1.959,5.017c0.002,3.738-0.715,6.917-2.256,10.004
		c-0.149,0.298-0.399,0.797-0.967,0.797c-0.055,0-0.474-0.015-0.597-0.438c-0.199,1.281-0.331,2.54-0.331,3.707
		c0,0.044,0.005,0.082,0.012,0.111c0.586-0.086,1.62-0.94,2.075-1.316c0.431-0.356,0.561-0.464,0.786-0.464
		c0.222,0,0.598,0.133,0.598,0.629c0,0.266-0.162,0.465-0.319,0.658c-0.059,0.071-0.155,0.19-0.174,0.24
		c0.104,0.08,0.194,0.219,0.202,0.41c0.29,0.11,0.485,0.378,0.485,0.706C87.792,23.111,83.734,26.671,82.297,26.671z M84.912,14.683
		c-0.114,0.559-0.223,1.123-0.321,1.684c0.085-0.195,0.212-0.469,0.399-0.87c0.078-0.166,0.171-0.364,0.258-0.554
		C85.114,14.9,84.992,14.813,84.912,14.683z M86.307,8.152c-0.083,0.308-0.171,0.773-0.222,1.041L86.031,9.47
		c-0.159,0.815-0.356,1.705-0.563,2.637c-0.089,0.404-0.18,0.815-0.271,1.231c0.261-0.639,0.621-1.709,0.855-3.262
		c0.027-0.189,0.062-0.381,0.096-0.573c0.081-0.458,0.158-0.892,0.158-1.334C86.307,8.164,86.307,8.158,86.307,8.152z"/>
	<path id="stroke-8" fill="#515050" d="M91.475,26.345c-2.07,0-3.618-1.99-4.207-3.167c-0.241-0.484-0.344-1.318-0.344-2.791
		c0-3.885,3.75-10.312,8.024-10.312c1.112,0,3.028,2.013,3.028,4.074c0,3.498-2.471,4.565-6.528,5.88
		c0.119,1.166,0.658,1.418,1.424,1.418c0.837,0,3.459-1.414,3.766-1.852c0.104-0.144,0.337-0.457,0.741-0.457
		c0.351,0,0.729,0.254,0.729,0.663c0,0.176-0.068,0.342-0.171,0.503c0.085,0.108,0.139,0.255,0.139,0.439
		c0,0.188-0.084,0.361-0.205,0.542c0.122,0.125,0.204,0.306,0.204,0.53c0,0.482-0.146,0.836-3.26,3.04
		c-0.128,0.092-2.464,1.488-3.338,1.488H91.475z M93.022,14.414c-0.246,0.219-0.585,0.989-0.888,1.854
		c0.078-0.037,0.159-0.076,0.243-0.115c0.331-0.155,1.021-0.479,1.099-0.667C93.475,15.117,93.2,14.559,93.022,14.414z"/>
	<path id="stroke-9" fill="#515050" d="M106.169,26.35c-1.204,0-2.284-2.561-2.284-3.328c0-0.548,0.052-1.243,0.098-1.856
		c0.009-0.129,0.019-0.259,0.027-0.385c-0.202,0.372-0.425,0.796-0.626,1.179c-1.574,2.998-2.128,3.87-2.761,3.87
		c-0.934,0-1.871-1.269-2.054-1.582c-0.434-0.746-0.878-1.618-0.878-2.429c0-0.121,0.543-12.069,2.51-12.069
		c0.136,0,0.787,0.053,0.853,1.048c0.099-0.046,0.213-0.074,0.347-0.074c0.758,0,1.021,0.405,1.109,0.844
		c0.067-0.02,0.141-0.031,0.221-0.031c0.509,0,0.922,0.501,0.922,1.118c0,0.392-0.285,1.4-0.75,3.013
		c-0.085,0.297-0.18,0.624-0.271,0.948c0.278-0.461,0.554-0.919,0.818-1.359c2.235-3.724,2.356-3.849,2.783-3.849
		c0.452,0,0.701,0.235,0.866,0.391c0.081,0.077,0.145,0.137,0.233,0.182c0.394,0.179,0.479,0.483,0.509,0.65
		c0.673,0.34,1.097,1.042,1.097,1.844c0,1.025-0.146,1.991-0.286,2.925c-0.114,0.761-0.224,1.485-0.256,2.219
		c0.129-0.156,0.271-0.354,0.366-0.485c0.359-0.498,0.557-0.771,0.908-0.771c0.372,0,0.663,0.291,0.663,0.662
		c0,0.188-0.076,0.334-0.16,0.448c0.176,0.116,0.29,0.321,0.29,0.56c0,0.18-0.084,0.315-0.212,0.521
		c-0.048,0.077-0.134,0.216-0.182,0.313c0.028,0.058,0.054,0.13,0.064,0.217c0.271,0.078,0.459,0.341,0.459,0.672
		c0,0.32-0.145,0.672-2.998,3.734c-0.177,0.19-0.299,0.32-0.333,0.36C106.847,26.268,106.44,26.35,106.169,26.35z"/>
	<path id="stroke-10" fill="#515050" d="M114.568,26.672c-1.131,0-2.136-0.961-3.539-2.428c-0.499-0.538-0.716-1.291-0.756-2.606
		c-0.133-5.276,2.928-9.845,4.565-11.524c0.736-0.756,1.093-0.853,1.32-0.853c0.148,0,0.274,0.027,0.38,0.073
		c-0.147-0.273-0.297-0.53-0.446-0.769c-0.051-0.083-0.174-0.272-0.342-0.531c-2.062-3.176-2.426-3.901-2.426-4.252
		c0-0.422,0.272-0.695,0.694-0.695c0.006,0,0.013,0,0.019,0c0.006-0.459,0.316-0.779,0.759-0.779c0.032,0,0.063,0.001,0.095,0.004
		c-0.071-0.165-0.107-0.291-0.107-0.414c0-0.264,0.124-0.473,0.325-0.582c0.048-0.157,0.151-0.343,0.388-0.473
		c0.01-0.005,0.02-0.01,0.028-0.015c0.064-0.218,0.268-0.501,0.893-0.501c1.206,0,6.759,8.802,6.759,14.276
		c0,5.14-2.079,7.8-5.67,10.661C116.63,25.924,115.514,26.672,114.568,26.672z M118.148,13.688
		c-0.111,0.168-0.275,0.345-0.487,0.573c-1.391,1.561-2.884,4.115-2.884,6.581c0,0.359,0.217,0.93,0.799,0.93
		c1.079,0,2.711-2.69,2.711-6.746C118.287,14.611,118.237,14.159,118.148,13.688z"/>
	<path id="stroke-11" fill="#515050" d="M127.412,26.345c-2.074,0-3.62-1.991-4.207-3.167c-0.242-0.482-0.346-1.317-0.346-2.791
		c0-3.885,3.75-10.312,8.024-10.312c1.113,0,3.03,2.013,3.03,4.074c0,3.497-2.471,4.565-6.529,5.881
		c0.117,1.165,0.657,1.417,1.424,1.417c0.836,0,3.46-1.415,3.767-1.853c0.103-0.141,0.334-0.456,0.743-0.456
		c0.35,0,0.727,0.254,0.727,0.663c0,0.176-0.068,0.342-0.171,0.503c0.085,0.107,0.14,0.255,0.14,0.439
		c0,0.188-0.084,0.362-0.205,0.543c0.121,0.125,0.203,0.305,0.203,0.529c0,0.482-0.146,0.836-3.26,3.04
		c-0.122,0.088-2.476,1.488-3.338,1.488H127.412z M128.959,14.414c-0.246,0.219-0.585,0.989-0.888,1.854
		c0.078-0.038,0.16-0.077,0.244-0.116c0.332-0.156,1.021-0.479,1.1-0.667C129.411,15.117,129.136,14.558,128.959,14.414z"/>
	<path id="stroke-12" fill="#515050" d="M137.273,26.346c-0.221,0-1.755-0.216-1.796-1.082c-0.037,0.007-0.076,0.01-0.118,0.01
		c-0.433,0-1.439-0.191-1.439-1.961c0-4.353,0.667-9.276,1.74-12.85c0.061-0.32,0.444-0.713,0.9-0.713
		c0.72,0,1.084,1.145,1.084,1.377c0,0.009,0,0.019,0,0.028c0.036-0.005,0.075-0.008,0.116-0.008c0.299,0,1.003,0.36,1.104,0.917
		c0.031-0.004,0.062-0.007,0.097-0.007c0.433,0,0.954,0.397,0.954,0.89c0,0.534-0.252,1.242-0.543,2.062
		c-0.051,0.144-0.103,0.29-0.154,0.438c0.458-0.531,0.991-0.92,1.592-0.92c0.452,0,1.537,0.33,1.537,1.148
		c0,0.087-0.008,0.171-0.021,0.25c0.424,0.036,0.865,0.464,0.865,0.856c0,0.897-0.33,1.735-0.726,2.416
		c0.265-0.058,0.587-0.168,0.778-0.264l0.725-0.365v0.812c0,0.397-0.129,0.669-0.299,0.857l0.39-0.156l-0.058,0.798
		c-0.126,1.734-2.677,2.089-3.354,2.089c-0.951-0.001-1.555-0.43-1.975-0.943c-0.253,1.2-0.558,2.919-0.681,3.675
		C138,25.976,137.729,26.346,137.273,26.346z"/>
</g>

<g id="letter-colors">
	<path id="letter-1" fill="#D2CFCE" d="M4.166,6.609C5.041,4.984,8.284,0.5,10.198,0.5c1.233,0,1.654,1.104,2.627,2.307
		c0.421,0.52,0.648,1.365,0.648,2.015c0,0.878-0.356,2.372-0.324,2.794c0.097,0.748-0.324,2.274-0.876,2.274
		c-0.356,0-0.454-0.39-0.746-0.39c-0.39,0-0.227,1.04-0.908,1.04c-0.584,0-0.032-0.91-0.454-0.91c-0.356,0-0.486,1.365-0.681,1.43
		c-0.065,0.032-0.195,0.032-0.292,0.065c-0.097,0.324-0.259,0.422-0.421,0.422c-0.097,0-0.162-0.163-0.162-0.325
		c0-0.228,0.486-1.17,0.551-2.535c0.032-0.487,0.421-2.145,0.421-2.6c0-0.552-0.162-1.105-0.584-1.105
		c-1.135,0-4.605,9.457-4.605,13.681c0,1.364,0.94,3.087,2.853,3.087c1.104,0,2.336-0.682,3.244-1.104
		c1.071-0.487,1.979-1.432,2.109-1.432c0.097,0,0.097,0.1,0.097,0.196c0,0.065-0.26,0.293-0.26,0.457
		c0,0.226,0.163,0.389,0.163,0.583c0,0.292-0.617,0.422-0.617,0.683c0,0.163,0.421,0.552,0.421,0.714
		c0,0.325-4.638,3.997-7.362,3.997c-1.492,0-2.627-1.493-3.309-2.339C0.727,22.239,0.5,21.688,0.5,18.502
		C0.5,14.473,2.284,10.086,4.166,6.609z"/>
	<path id="letter-2" fill="#D2CFCE" d="M18.144,25.293c-0.454,0-0.811-0.26-1.038-0.26c-0.097,0-0.162,0.097-0.162,0.162
		c0,0.131,0.552,0.162,0.811,0.326c-0.324,0.064-0.681,0.129-1.492,0.129c-0.583,0-1.557-0.553-2.303-1.526
		c-0.746-0.976-1.07-1.592-1.07-3.056c0-4.321,2.043-7.474,5.612-9.812c0.291,0.065,0.907,0.325,1.134,0.325
		c0.064,0,0.064-0.032,0.064-0.065c0-0.163-0.616-0.487-0.713-0.553c0.421-0.357,1.135-0.714,1.395-0.714
		c1.232,0,2.4,1.3,2.951,2.177c0.843,1.3,0.843,2.762,0.843,3.704C24.176,20.16,20.057,25.293,18.144,25.293z M20.188,15.025
		c-0.325-0.39-0.812-0.845-1.136-0.845c-1.524,0-2.465,3.704-2.465,4.939c0,1.04,0.13,3.054,1.589,3.054
		c2.011,0,2.498-3.899,2.498-5.329C20.674,16.163,20.577,15.48,20.188,15.025z"/>
	<path id="letter-3" fill="#D2CFCE" d="M30.793,16.585c-0.195,0.39-0.324,0.521-0.519,0.521c-0.13,0-0.13-0.1-0.13-0.195
		c0-0.195,1.103-2.339,1.103-2.568c0-0.097-0.032-0.259-0.163-0.259c-0.129,0-0.162,0.39-0.422,0.39
		c-0.096,0-0.128-0.065-0.128-0.163c0-0.097,0.811-1.365,1.232-4.159c0.097-0.65,0.259-1.3,0.259-1.982
		c0-0.325-0.13-0.812-0.39-0.812c-0.552,0-0.713,1.202-0.875,2.015c-0.649,3.314-1.914,7.831-1.914,11.503
		c0,0.26,0.098,0.618,0.422,0.618c1.038,0,2.789-1.787,2.951-1.787c0.098,0,0.098,0.063,0.098,0.129c0,0.195-0.486,0.554-0.486,0.845
		c0,0.229,0.194,0.357,0.194,0.487c0,0.228-0.227,0.325-0.227,0.455c0,0.033,0.033,0.065,0.097,0.065c0.13,0,0.227-0.099,0.325-0.099
		c0.162,0,0.292,0.099,0.292,0.261c0,0.942-3.762,4.321-4.995,4.321c-0.778,0-1.913-2.146-2.14-2.696
		c-0.195-0.455-0.228-1.365-0.228-3.022c0-4.614,2.465-13.063,2.919-16.605c0.163-1.169,0.681-2.892,1.622-2.892
		c0.293,0,0.389,0.195,0.389,0.455c0,0.26-0.096,0.52-0.13,0.812c0,0.13,0.034,0.228,0.162,0.228c0.195,0,0.13-0.812,0.55-0.812
		c0.553,0,0.099,0.877,0.488,0.877c0.227,0,0.259-0.228,0.389-0.228c0.584,0,1.46,2.827,1.46,4.517
		C32.999,10.086,32.447,13.271,30.793,16.585z"/>
	<path id="letter-4" fill="#D2CFCE" d="M37.896,25.293c-0.454,0-0.81-0.26-1.038-0.26c-0.098,0-0.162,0.097-0.162,0.162
		c0,0.131,0.55,0.162,0.811,0.326c-0.325,0.064-0.682,0.129-1.492,0.129c-0.584,0-1.557-0.553-2.303-1.526
		c-0.746-0.976-1.069-1.592-1.069-3.056c0-4.321,2.043-7.474,5.61-9.812c0.292,0.065,0.908,0.325,1.135,0.325
		c0.065,0,0.065-0.032,0.065-0.065c0-0.163-0.616-0.487-0.713-0.553c0.421-0.357,1.135-0.714,1.394-0.714
		c1.233,0,2.4,1.3,2.952,2.177c0.843,1.3,0.843,2.762,0.843,3.704C43.929,20.16,39.81,25.293,37.896,25.293z M39.938,15.025
		c-0.323-0.39-0.81-0.845-1.134-0.845c-1.525,0-2.465,3.704-2.465,4.939c0,1.04,0.13,3.054,1.589,3.054
		c2.01,0,2.498-3.899,2.498-5.329C40.426,16.163,40.329,15.48,39.938,15.025z"/>
	<path id="letter-5" fill="#D2CFCE" d="M48.956,20.744c-0.259,0.779-0.811,3.867-0.973,4.874c0,0.098-0.064,0.228-0.228,0.228
		c-0.292,0-1.297-0.26-1.297-0.617c0-0.356,0.097-0.649,0.097-1.006c0-0.098-0.064-0.164-0.161-0.164c-0.26,0-0.26,0.715-0.552,0.715
		c-0.617,0-0.941-0.487-0.941-1.461c0-4.097,0.617-9.035,1.719-12.707c0.033-0.163,0.227-0.357,0.421-0.357
		c0.292,0,0.584,0.747,0.584,0.877c0,0.227-0.194,0.617-0.194,0.91c0,0.065,0.065,0.26,0.162,0.26c0.292,0,0.292-0.65,0.649-0.65
		c0.098,0,0.616,0.261,0.616,0.553c0,0.26-0.162,0.747-0.162,1.04c0,0.063,0.097,0.162,0.195,0.162c0.259,0,0.323-0.845,0.551-0.845
		c0.162,0,0.454,0.195,0.454,0.39c0,1.04-1.297,3.314-1.297,5.134h0.065c0.454-0.846,1.492-3.054,2.626-3.054
		c0.292,0,1.038,0.228,1.038,0.648c0,0.456-0.324,0.781-0.324,0.812c0,0,0,0.064,0.033,0.064c0.065,0,0.227-0.193,0.259-0.193
		c0.032,0,0.032,0.033,0.032,0.033c0,0.031-0.065,0.096-0.065,0.129c0,0.064,0.033,0.162,0.065,0.228
		c0.162-0.162,0.325-0.325,0.421-0.325c0.195,0,0.422,0.26,0.422,0.358c0,1.04-0.519,2.079-1.167,2.924
		c0.227,0.032,0.421,0.032,0.649,0.032c0.357,0,0.972-0.194,1.297-0.357c0,0.877-0.876,0.714-0.876,0.91
		c0,0.098,0.065,0.163,0.13,0.163s0.196-0.065,0.292-0.065c0.065,0,0.097,0.033,0.097,0.098c0,0.228-0.193,0.357-0.356,0.423v0.065
		c0.26,0,0.584-0.065,0.746-0.131c-0.097,1.332-2.335,1.625-2.854,1.625C49.929,22.466,49.443,21.688,48.956,20.744z"/>
	<path id="letter-6" fill="#D2CFCE" d="M64.135,8.201c0-0.163-0.292-0.26-0.292-0.455c0-0.13,0.227-0.228,0.227-0.39
		c0-0.39-0.715-0.099-0.715-0.585c0-0.389,0.553-0.422,0.553-0.682c0-0.325-0.681-0.195-0.681-0.52c0-0.683,3.859-1.592,4.151-1.885
		l0.129-0.129c0.26-0.26,0.713-3.055,1.201-3.055c0.357,0,0.292,0.617,0.455,0.617c0.162,0,0.324-0.13,0.454-0.13
		c0.26,0,0.325,0.228,0.325,0.455c0,0.195-0.13,0.521-0.13,0.748c0,0.097,0.032,0.162,0.13,0.162c0.26,0,0.292-0.455,0.551-0.455
		c0.228,0,0.39,0.455,0.551,0.455c0.519,0,3.794-1.397,4.541-1.397c1.589,0,3.632,2.535,3.632,4.387c0,4.452-5.06,7.929-5.06,8.546
		c0,0.098,0.065,0.229,0.227,0.229c0.357,0,0.683-0.066,1.038-0.066c2.237,0,3.275,1.657,3.275,3.737
		c0,4.679-4.119,10.562-4.897,11.567c-0.485,0.617-1.135,2.145-1.589,2.145c-0.098,0-0.227-0.229-0.227-0.357
		c0-0.324,0.259-0.162,0.259-0.486c0-0.161-0.099-0.229-0.195-0.229c-0.162,0-0.227,0.195-0.518,0.195
		c-0.163,0-0.228-0.163-0.228-0.292c0-0.39,0.649-0.714,0.649-0.942c0-0.131-0.097-0.326-0.227-0.326
		c-0.163,0-0.422,0.293-0.909,0.293c-0.227,0-0.39-0.162-0.39-0.293c0-0.324,0.39-0.455,0.39-0.877c0-0.097-0.097-0.162-0.194-0.162
		c-0.162,0-0.227,0.098-0.389,0.098c-0.097,0-0.195-0.098-0.195-0.26c0-0.65,1.687-1.854,3.341-5.654
		c0.358-0.812,0.845-1.95,0.845-2.893c0-1.981-1.168-2.145-2.888-2.145c-0.487,0-2.303,0.229-2.368,0.78
		c-0.096,0.877-0.713,5.686-0.747,6.207c-0.032,1.526-0.128,2.015-0.582,2.015c-0.292,0-0.422-0.195-0.422-0.422
		c0-0.26,0.032-0.52,0.032-0.781c0-0.193,0.065-0.551-0.227-0.551s-0.162,0.617-0.519,0.617c-0.259,0-0.325-0.682-0.486-0.682
		c-0.357,0-0.195,0.356-0.487,0.356c-0.193,0-0.259-0.194-0.259-0.356c0-0.293,0.066-0.586,0.032-0.877
		c0-0.164-0.065-0.358-0.259-0.358c-0.26,0-0.227,0.422-0.455,0.422c-0.227,0-0.259-0.195-0.259-0.585
		c0-0.26,1.492-12.965,1.979-14.232c0.065-0.163,0.065-0.357,0.065-0.52c0-0.13-0.097-0.26-0.228-0.26
		c-0.486,0-1.816,1.04-2.334,1.04c-0.098,0-0.195-0.065-0.195-0.228C63.616,8.429,64.135,8.396,64.135,8.201z M69.357,13.335
		c1.622-1.204,5.579-4.81,5.579-6.987c0-0.648-0.324-1.105-0.875-1.105c-0.682,0-2.952,0.845-3.666,1.593
		c-0.193,1.04-0.746,4.257-1.103,6.304L69.357,13.335z"/>
	<path id="letter-7" fill="#D2CFCE" d="M85.574,16.585c-0.195,0.39-0.324,0.521-0.52,0.521c-0.13,0-0.13-0.1-0.13-0.195
		c0-0.195,1.103-2.339,1.103-2.568c0-0.097-0.032-0.259-0.162-0.259c-0.129,0-0.162,0.39-0.422,0.39
		c-0.098,0-0.129-0.065-0.129-0.163c0-0.097,0.811-1.365,1.232-4.159c0.096-0.65,0.26-1.3,0.26-1.982
		c0-0.325-0.131-0.812-0.391-0.812c-0.551,0-0.713,1.202-0.875,2.015c-0.648,3.314-1.914,7.831-1.914,11.503
		c0,0.26,0.098,0.618,0.421,0.618c1.038,0,2.79-1.787,2.952-1.787c0.098,0,0.098,0.063,0.098,0.129c0,0.195-0.486,0.554-0.486,0.845
		c0,0.229,0.195,0.357,0.195,0.487c0,0.228-0.228,0.325-0.228,0.455c0,0.033,0.032,0.065,0.097,0.065
		c0.131,0,0.227-0.099,0.324-0.099c0.162,0,0.292,0.099,0.292,0.261c0,0.942-3.763,4.321-4.995,4.321
		c-0.777,0-1.913-2.146-2.14-2.696c-0.195-0.455-0.228-1.365-0.228-3.022c0-4.614,2.465-13.063,2.918-16.605
		c0.164-1.169,0.682-2.892,1.623-2.892c0.291,0,0.389,0.195,0.389,0.455c0,0.26-0.098,0.52-0.131,0.812
		c0,0.13,0.033,0.228,0.162,0.228c0.195,0,0.131-0.812,0.551-0.812c0.553,0,0.1,0.877,0.488,0.877c0.227,0,0.258-0.228,0.389-0.228
		c0.584,0,1.459,2.827,1.459,4.517C87.779,10.086,87.229,13.271,85.574,16.585z"/>
	<path id="letter-8" fill="#D2CFCE" d="M87.715,22.954c-0.227-0.455-0.291-1.397-0.291-2.567c0-3.64,3.6-9.812,7.524-9.812
		c0.778,0,2.528,1.721,2.528,3.574c0,3.25-2.302,4.16-6.551,5.524c0.033,1.3,0.454,2.274,1.946,2.274
		c1.006,0,3.829-1.527,4.185-2.079c0.098-0.132,0.194-0.229,0.322-0.229c0.1,0,0.229,0.065,0.229,0.163
		c0,0.292-0.713,0.878-0.713,1.007c0,0.065,0.098,0.099,0.162,0.099c0.098,0,0.323-0.325,0.422-0.325
		c0.064,0,0.097,0.064,0.097,0.162c0,0.229-0.616,0.812-0.616,1.04c0,0.063,0.032,0.063,0.098,0.063c0.098,0,0.227-0.26,0.355-0.26
		c0.064,0,0.162,0.064,0.162,0.229c0,0.228-0.064,0.521-3.049,2.632c-0.228,0.163-2.399,1.396-3.049,1.396
		C89.758,25.846,88.332,24.188,87.715,22.954z M93.001,13.888c-0.875,0-2.076,4.354-2.076,5.199c0.162-0.032,1.005-0.26,1.005-0.455
		c0-0.292-0.615-0.13-0.615-0.358c0-0.291,1.135-0.52,1.135-0.746c0-0.098-0.26-0.098-0.455-0.098c-0.227,0-0.324-0.064-0.324-0.195
		c0-0.454,2.303-0.941,2.303-1.721C93.975,14.928,93.52,13.888,93.001,13.888z"/>
	<path id="letter-9" fill="#D2CFCE" d="M100.201,10.249c0.259,0,0.357,0.326,0.357,0.714v0.326c0,0.487,0.096,0.682,0.193,0.682
		c0.195,0,0.227-0.748,0.648-0.748c0.486,0,0.648,0.163,0.648,0.812c0,0.227-0.064,0.39-0.064,0.52c0,0.098,0.064,0.195,0.129,0.195
		c0.098,0,0.26-0.714,0.617-0.714c0.227,0,0.422,0.292,0.422,0.618c0,0.682-1.461,5.069-1.461,5.751c0,0.163,0.033,0.26,0.164,0.26
		c0.162,0,0.355-0.422,0.647-0.877c1.751-2.859,3.47-5.881,3.729-5.881c0.42,0,0.486,0.324,0.875,0.52
		c0.357,0.163,0.162,0.39,0.357,0.584c0.616,0.229,0.973,0.813,0.973,1.463c0,1.95-0.551,3.706-0.551,5.557
		c0,0.228,0.193,0.293,0.389,0.293c0.422,0,1.168-1.463,1.395-1.463c0.098,0,0.163,0.064,0.163,0.162c0,0.194-0.356,0.357-0.356,0.65
		c0,0.129,0,0.26,0.097,0.357c0.063-0.065,0.194-0.161,0.26-0.161c0.097,0,0.13,0.096,0.13,0.161c0,0.098-0.422,0.617-0.422,0.877
		c0,0.13,0.098,0.13,0.098,0.26c0,0.259-0.324,0.488-0.324,0.618c0,0.063,0.033,0.163,0.129,0.163c0.162,0,0.356-0.391,0.521-0.391
		c0.063,0,0.129,0.065,0.129,0.195c0,0.391-3.017,3.542-3.211,3.77c-0.26,0.261-0.519,0.326-0.713,0.326
		c-0.746,0-1.784-2.146-1.784-2.828c0-1.039,0.195-2.664,0.162-3.185c0-0.26-0.064-0.455-0.193-0.455
		c-0.422,0-2.983,5.947-3.73,5.947c-0.583,0-1.395-0.942-1.621-1.333c-0.454-0.78-0.811-1.527-0.811-2.178
		C98.191,20.322,99.066,10.249,100.201,10.249z"/>
	<path id="letter-10" fill="#D2CFCE" d="M116.159,9.761c0.129,0,0.292,0.032,0.292,0.195c0.033,0.162-0.26,0.584-0.26,0.747
		c0,0.097,0.064,0.228,0.129,0.228c0.099,0,0.228-0.163,0.423-0.163c0.063,0,0.098,0.098,0.098,0.195c0,0.228-0.422,0.65-0.422,0.91
		c0,0.13,0.097,0.163,0.162,0.163c0.194,0,0.356-0.358,0.584-0.358c0.13,0,0.162,0.065,0.162,0.195c0,0.357-0.421,0.942-0.421,1.365
		c0,0.097,0.033,0.129,0.13,0.129s0.454-0.422,0.616-0.422c0.098,0,0.162,0.098,0.162,0.228c0,0.163-0.098,0.293-0.52,0.748
		c-1.622,1.82-3.018,4.452-3.018,6.921c0,0.684,0.455,1.43,1.299,1.43c1.46,0,3.211-2.957,3.211-7.246
		c0-2.08-1.168-4.972-2.271-6.727c-0.259-0.423-2.69-4.062-2.69-4.517c0-0.162,0.065-0.195,0.194-0.195
		c0.39,0,0.875,0.682,1.006,0.682c0.033,0,0.064,0,0.064-0.032c0-0.228-0.552-0.845-0.552-1.137c0-0.195,0.098-0.292,0.259-0.292
		c0.389,0,0.811,0.39,0.876,0.39s0.097-0.065,0.097-0.163c0-0.162-0.485-0.942-0.485-1.137c0-0.097,0.032-0.162,0.161-0.162
		c0.228,0,0-0.293,0.293-0.455c0.259-0.13,0.259-0.195,0.259-0.261c0-0.162,0.194-0.193,0.421-0.193
		c0.617,0,6.259,8.122,6.259,13.776c0,4.777-1.848,7.375-5.481,10.269c-0.647,0.487-1.783,1.3-2.627,1.3
		c-0.875,0-1.717-0.747-3.178-2.273c-0.422-0.455-0.584-1.17-0.617-2.275C110.613,15.285,115.348,9.761,116.159,9.761z"/>
	<path id="letter-11" fill="#D2CFCE" d="M123.652,22.954c-0.229-0.455-0.293-1.397-0.293-2.567c0-3.64,3.601-9.812,7.524-9.812
		c0.779,0,2.53,1.721,2.53,3.574c0,3.25-2.303,4.16-6.551,5.524c0.031,1.3,0.453,2.274,1.945,2.274c1.006,0,3.828-1.527,4.186-2.079
		c0.097-0.132,0.193-0.229,0.324-0.229c0.097,0,0.227,0.065,0.227,0.163c0,0.292-0.713,0.878-0.713,1.007
		c0,0.065,0.098,0.099,0.162,0.099c0.097,0,0.324-0.325,0.421-0.325c0.065,0,0.099,0.064,0.099,0.162c0,0.229-0.617,0.812-0.617,1.04
		c0,0.063,0.033,0.063,0.098,0.063c0.097,0,0.227-0.26,0.355-0.26c0.064,0,0.162,0.064,0.162,0.229c0,0.228-0.064,0.521-3.049,2.632
		c-0.227,0.163-2.4,1.396-3.049,1.396C125.695,25.846,124.268,24.188,123.652,22.954z M128.938,13.888
		c-0.875,0-2.076,4.354-2.076,5.199c0.162-0.032,1.007-0.26,1.007-0.455c0-0.292-0.616-0.13-0.616-0.358
		c0-0.291,1.135-0.52,1.135-0.746c0-0.098-0.259-0.098-0.453-0.098c-0.228,0-0.326-0.064-0.326-0.195
		c0-0.454,2.304-0.941,2.304-1.721C129.911,14.928,129.457,13.888,128.938,13.888z"/>
	<path id="letter-12" fill="#D2CFCE" d="M138.473,20.744c-0.259,0.779-0.81,3.867-0.973,4.874c0,0.098-0.064,0.228-0.227,0.228
		c-0.293,0-1.297-0.26-1.297-0.617c0-0.356,0.098-0.649,0.098-1.006c0-0.098-0.065-0.164-0.162-0.164c-0.26,0-0.26,0.715-0.553,0.715
		c-0.615,0-0.939-0.487-0.939-1.461c0-4.097,0.616-9.035,1.719-12.707c0.032-0.163,0.228-0.357,0.422-0.357
		c0.293,0,0.584,0.747,0.584,0.877c0,0.227-0.193,0.617-0.193,0.91c0,0.065,0.064,0.26,0.162,0.26c0.291,0,0.291-0.65,0.647-0.65
		c0.099,0,0.617,0.261,0.617,0.553c0,0.26-0.162,0.747-0.162,1.04c0,0.063,0.097,0.162,0.195,0.162c0.259,0,0.323-0.845,0.551-0.845
		c0.163,0,0.454,0.195,0.454,0.39c0,1.04-1.297,3.314-1.297,5.134h0.064c0.455-0.846,1.491-3.054,2.627-3.054
		c0.291,0,1.037,0.228,1.037,0.648c0,0.456-0.324,0.781-0.324,0.812c0,0,0,0.064,0.033,0.064c0.064,0,0.228-0.193,0.26-0.193
		c0.031,0,0.031,0.033,0.031,0.033c0,0.031-0.063,0.096-0.063,0.129c0,0.064,0.032,0.162,0.063,0.228
		c0.161-0.162,0.324-0.325,0.422-0.325c0.194,0,0.422,0.26,0.422,0.358c0,1.04-0.52,2.079-1.168,2.924
		c0.228,0.032,0.422,0.032,0.648,0.032c0.357,0,0.973-0.194,1.297-0.357c0,0.877-0.875,0.714-0.875,0.91
		c0,0.098,0.066,0.163,0.131,0.163s0.193-0.065,0.291-0.065c0.065,0,0.098,0.033,0.098,0.098c0,0.228-0.194,0.357-0.356,0.423v0.065
		c0.261,0,0.583-0.065,0.746-0.131c-0.097,1.332-2.334,1.625-2.854,1.625C139.447,22.466,138.96,21.688,138.473,20.744z"/>
</g>

<g id="shadows">
	<linearGradient id="shadow-e_4_" gradientUnits="userSpaceOnUse" x1="129.4697" y1="17.877" x2="127.7742" y2="17.877">
		<stop  offset="0" style="stop-color:#000000;stop-opacity:0"/>
		<stop  offset="1" style="stop-color:#000000"/>
	</linearGradient>
	<path id="shadow-e_1_" opacity="0.5" fill="url(#shadow-e_4_)" d="M129.494,16.081c-0.661,0.47-1.889,0.821-1.889,1.153
		c0,0.131,0.098,0.195,0.324,0.195c0.195,0,0.455,0,0.455,0.098c0,0.227-1.135,0.455-1.135,0.746c0,0.229,0.615,0.066,0.615,0.358
		c0,0.195-0.843,0.423-1.005,0.455l0.001,0.586c1.071-0.344,2.017-0.659,2.835-0.99L129.494,16.081z"/>
	<linearGradient id="shadow-e_5_" gradientUnits="userSpaceOnUse" x1="131.4336" y1="21.8984" x2="132.7793" y2="21.4951">
		<stop  offset="0" style="stop-color:#000000;stop-opacity:0"/>
		<stop  offset="1" style="stop-color:#000000"/>
	</linearGradient>
	<path id="shadow-e" opacity="0.5" fill="url(#shadow-e_5_)" d="M133.314,19.639c-0.128,0-0.225,0.098-0.322,0.229
		c-0.183,0.283-1.017,0.823-1.921,1.282l0.687,2.359c1.703-1.27,1.752-1.505,1.752-1.693c0-0.164-0.098-0.229-0.162-0.229
		c-0.129,0-0.258,0.26-0.355,0.26c-0.065,0-0.098,0-0.098-0.063c0-0.228,0.616-0.812,0.616-1.04c0-0.098-0.032-0.162-0.097-0.162
		c-0.099,0-0.324,0.325-0.422,0.325c-0.064,0-0.162-0.033-0.162-0.099c0-0.129,0.713-0.715,0.713-1.007
		C133.543,19.704,133.414,19.639,133.314,19.639z"/>
	<linearGradient id="shadow-d_1_" gradientUnits="userSpaceOnUse" x1="114.7383" y1="14.2998" x2="116.8096" y2="11.3027">
		<stop  offset="0" style="stop-color:#000000;stop-opacity:0"/>
		<stop  offset="1" style="stop-color:#000000"/>
	</linearGradient>
	<path id="shadow-d" opacity="0.5" fill="url(#shadow-d_1_)" d="M115.925,15.773c0.417-0.672,0.88-1.302,1.37-1.853
		c0.422-0.455,0.52-0.585,0.52-0.748c0-0.13-0.064-0.228-0.162-0.228c-0.162,0-0.52,0.422-0.616,0.422s-0.13-0.032-0.13-0.129
		c0-0.423,0.421-1.008,0.421-1.365c0-0.13-0.032-0.195-0.162-0.195c-0.228,0-0.39,0.358-0.584,0.358
		c-0.065,0-0.162-0.033-0.162-0.163c0-0.26,0.422-0.682,0.422-0.91c0-0.097-0.034-0.195-0.098-0.195
		c-0.195,0-0.324,0.163-0.423,0.163c-0.064,0-0.129-0.131-0.129-0.228c0-0.163,0.293-0.585,0.26-0.747
		c0-0.163-0.163-0.195-0.292-0.195c-0.431,0-1.967,1.568-3.291,3.98L115.925,15.773z"/>
	<linearGradient id="shadow-e_6_" gradientUnits="userSpaceOnUse" x1="93.5342" y1="17.877" x2="91.8387" y2="17.877">
		<stop  offset="0" style="stop-color:#000000;stop-opacity:0"/>
		<stop  offset="1" style="stop-color:#000000"/>
	</linearGradient>
	<path id="shadow-e_3_" opacity="0.5" fill="url(#shadow-e_6_)" d="M93.559,16.081c-0.661,0.47-1.889,0.821-1.889,1.153
		c0,0.131,0.098,0.195,0.324,0.195c0.195,0,0.455,0,0.455,0.098c0,0.227-1.135,0.455-1.135,0.746c0,0.229,0.615,0.066,0.615,0.358
		c0,0.195-0.843,0.423-1.005,0.455l0.001,0.586c1.071-0.344,2.017-0.659,2.835-0.99L93.559,16.081z"/>
	<linearGradient id="shadow-e_7_" gradientUnits="userSpaceOnUse" x1="95.498" y1="21.8994" x2="96.8438" y2="21.4961">
		<stop  offset="0" style="stop-color:#000000;stop-opacity:0"/>
		<stop  offset="1" style="stop-color:#000000"/>
	</linearGradient>
	<path id="shadow-e_2_" opacity="0.5" fill="url(#shadow-e_7_)" d="M97.379,19.639c-0.128,0-0.225,0.098-0.322,0.229
		c-0.183,0.283-1.017,0.823-1.921,1.282l0.687,2.359c1.703-1.27,1.752-1.505,1.752-1.693c0-0.164-0.098-0.229-0.162-0.229
		c-0.129,0-0.258,0.26-0.355,0.26c-0.065,0-0.098,0-0.098-0.063c0-0.228,0.616-0.812,0.616-1.04c0-0.098-0.032-0.162-0.097-0.162
		c-0.099,0-0.324,0.325-0.422,0.325c-0.064,0-0.162-0.033-0.162-0.099c0-0.129,0.713-0.715,0.713-1.007
		C97.607,19.704,97.479,19.639,97.379,19.639z"/>
	<linearGradient id="shadow-l_2_" gradientUnits="userSpaceOnUse" x1="84.9102" y1="22.6621" x2="86.9658" y2="21.5957">
		<stop  offset="0" style="stop-color:#000000;stop-opacity:0"/>
		<stop  offset="1" style="stop-color:#000000"/>
	</linearGradient>
	<path id="shadow-l_1_" opacity="0.5" fill="url(#shadow-l_2_)" d="M87,21.589c-0.098,0-0.193,0.099-0.324,0.099
		c-0.064,0-0.097-0.032-0.097-0.065c0-0.13,0.228-0.228,0.228-0.455c0-0.13-0.195-0.259-0.195-0.487
		c0-0.291,0.486-0.649,0.486-0.845c0-0.065,0-0.129-0.098-0.129c-0.142,0-1.503,1.37-2.536,1.711l0.798,2.942
		c1.092-0.961,2.03-2.039,2.03-2.51C87.292,21.688,87.162,21.589,87,21.589z"/>
	<linearGradient id="shadow-b_1_" gradientUnits="userSpaceOnUse" x1="68.436" y1="10.3706" x2="68.436" y2="7.0277">
		<stop  offset="0" style="stop-color:#000000;stop-opacity:0"/>
		<stop  offset="1" style="stop-color:#000000"/>
	</linearGradient>
	<path id="shadow-b" opacity="0.5" fill="url(#shadow-b_1_)" d="M69.832,10.034c0.235-1.355,0.456-2.617,0.563-3.198
		c0.127-0.134,0.316-0.27,0.524-0.404l-4.756,1.52c0.001,0,0.002,0.002,0.003,0.002c0.059,0.008,0.11,0.035,0.146,0.083
		c0.038,0.046,0.061,0.105,0.061,0.167c0,0.163,0,0.357-0.065,0.52c-0.02,0.053-0.042,0.131-0.066,0.221
		c-0.005,0.021-0.011,0.042-0.017,0.064c-0.049,0.202-0.105,0.473-0.166,0.807c-0.003,0.019-0.007,0.038-0.01,0.057
		c-0.031,0.174-0.063,0.36-0.097,0.562l3.766-0.029L69.832,10.034z"/>
	<linearGradient id="shadow-l_3_" gradientUnits="userSpaceOnUse" x1="30.3149" y1="22.6777" x2="32.2212" y2="21.4434">
		<stop  offset="0" style="stop-color:#000000;stop-opacity:0"/>
		<stop  offset="1" style="stop-color:#000000"/>
	</linearGradient>
	<path id="shadow-l" opacity="0.5" fill="url(#shadow-l_3_)" d="M32.512,21.85c0-0.162-0.13-0.261-0.292-0.261
		c-0.098,0-0.195,0.099-0.325,0.099c-0.064,0-0.097-0.032-0.097-0.065c0-0.13,0.227-0.228,0.227-0.455
		c0-0.13-0.194-0.259-0.194-0.487c0-0.291,0.486-0.649,0.486-0.845c0-0.065,0-0.129-0.098-0.129c-0.138,0-1.425,1.287-2.446,1.672
		l0.855,2.848C31.656,23.3,32.512,22.299,32.512,21.85z"/>
	<linearGradient id="shadow-c_1_" gradientUnits="userSpaceOnUse" x1="8.979" y1="22.7812" x2="12.6978" y2="20.5938">
		<stop  offset="0" style="stop-color:#000000;stop-opacity:0"/>
		<stop  offset="1" style="stop-color:#000000"/>
	</linearGradient>
	<path id="shadow-c" opacity="0.5" fill="url(#shadow-c_1_)" d="M12.598,19.215c-0.13,0-1.038,0.944-2.109,1.432
		c-0.654,0.304-1.475,0.738-2.296,0.961l1.525,2.376c1.512-0.963,2.685-1.973,2.685-2.136c0-0.162-0.421-0.551-0.421-0.714
		c0-0.261,0.617-0.391,0.617-0.683c0-0.194-0.163-0.357-0.163-0.583c0-0.164,0.26-0.392,0.26-0.457
		C12.695,19.314,12.695,19.215,12.598,19.215z"/>
</g>
</svg>
