<svg version="1.1" id="main-logo" xmlns="http://www.w3.org/2000/svg" xmlns:xlink="http://www.w3.org/1999/xlink" x="0px" y="0px" width="143px" height="31px" viewBox="0 0 143 31">
<path id="C" fill="#D2CFCE" d="M3.666,6.109C4.541,4.484,7.784,0,9.698,0c1.233,0,1.654,1.104,2.627,2.307
	c0.421,0.52,0.648,1.365,0.648,2.015c0,0.878-0.356,2.372-0.324,2.794c0.097,0.748-0.324,2.274-0.876,2.274
	c-0.356,0-0.454-0.39-0.746-0.39c-0.39,0-0.227,1.04-0.908,1.04c-0.584,0-0.032-0.91-0.454-0.91c-0.356,0-0.486,1.365-0.681,1.43
	c-0.065,0.032-0.195,0.032-0.292,0.065c-0.097,0.324-0.259,0.422-0.421,0.422c-0.097,0-0.162-0.163-0.162-0.325
	c0-0.228,0.486-1.17,0.551-2.535c0.032-0.487,0.421-2.145,0.421-2.6c0-0.552-0.162-1.105-0.584-1.105
	c-1.135,0-4.605,9.457-4.605,13.681c0,1.365,0.94,3.087,2.853,3.087c1.104,0,2.336-0.682,3.244-1.104
	c1.071-0.487,1.979-1.431,2.109-1.431c0.097,0,0.097,0.099,0.097,0.196c0,0.065-0.26,0.293-0.26,0.457
	c0,0.226,0.163,0.389,0.163,0.583c0,0.292-0.617,0.422-0.617,0.683c0,0.163,0.421,0.552,0.421,0.714
	c0,0.325-4.638,3.997-7.362,3.997c-1.492,0-2.627-1.494-3.309-2.339C0.227,21.739,0,21.187,0,18.002
	C0,13.973,1.784,9.586,3.666,6.109z"/>
<path id="O" fill="#D2CFCE" d="M17.644,24.793c-0.454,0-0.811-0.26-1.038-0.26c-0.097,0-0.162,0.097-0.162,0.163
	c0,0.13,0.552,0.162,0.811,0.325c-0.324,0.065-0.681,0.13-1.492,0.13c-0.583,0-1.557-0.553-2.303-1.527
	c-0.746-0.976-1.07-1.592-1.07-3.055c0-4.322,2.043-7.474,5.612-9.813c0.291,0.065,0.907,0.325,1.134,0.325
	c0.064,0,0.064-0.032,0.064-0.065c0-0.163-0.616-0.487-0.713-0.553c0.421-0.357,1.135-0.714,1.395-0.714
	c1.232,0,2.4,1.3,2.951,2.177c0.843,1.3,0.843,2.762,0.843,3.704C23.676,19.66,19.557,24.793,17.644,24.793z M19.688,14.525
	c-0.325-0.39-0.812-0.845-1.136-0.845c-1.524,0-2.465,3.704-2.465,4.939c0,1.04,0.13,3.054,1.589,3.054
	c2.011,0,2.498-3.899,2.498-5.329C20.174,15.663,20.077,14.98,19.688,14.525z"/>
<path id="L" fill="#D2CFCE" d="M30.293,16.085c-0.195,0.39-0.324,0.52-0.519,0.52c-0.13,0-0.13-0.099-0.13-0.195
	c0-0.195,1.103-2.339,1.103-2.568c0-0.097-0.032-0.259-0.163-0.259c-0.129,0-0.162,0.39-0.422,0.39
	c-0.096,0-0.128-0.065-0.128-0.163c0-0.097,0.811-1.365,1.232-4.159c0.097-0.65,0.259-1.3,0.259-1.982
	c0-0.325-0.13-0.812-0.39-0.812c-0.552,0-0.713,1.202-0.875,2.015c-0.649,3.314-1.914,7.831-1.914,11.503
	c0,0.26,0.098,0.618,0.422,0.618c1.038,0,2.789-1.787,2.951-1.787c0.098,0,0.098,0.064,0.098,0.129c0,0.195-0.486,0.553-0.486,0.845
	c0,0.228,0.194,0.357,0.194,0.487c0,0.228-0.227,0.325-0.227,0.455c0,0.033,0.033,0.065,0.097,0.065c0.13,0,0.227-0.098,0.325-0.098
	c0.162,0,0.292,0.098,0.292,0.26c0,0.943-3.762,4.322-4.995,4.322c-0.778,0-1.913-2.145-2.14-2.697
	c-0.195-0.455-0.228-1.365-0.228-3.022c0-4.614,2.465-13.063,2.919-16.605c0.163-1.169,0.681-2.892,1.622-2.892
	c0.293,0,0.389,0.195,0.389,0.455s-0.096,0.52-0.13,0.812c0,0.13,0.034,0.228,0.162,0.228c0.195,0,0.13-0.812,0.55-0.812
	c0.553,0,0.099,0.877,0.488,0.877c0.227,0,0.259-0.228,0.389-0.228c0.584,0,1.46,2.827,1.46,4.517
	C32.499,9.586,31.947,12.771,30.293,16.085z"/>
<path id="O_1_" fill="#D2CFCE" d="M37.396,24.793c-0.454,0-0.81-0.26-1.038-0.26c-0.098,0-0.162,0.097-0.162,0.163
	c0,0.13,0.55,0.162,0.811,0.325c-0.325,0.065-0.682,0.13-1.492,0.13c-0.584,0-1.557-0.553-2.303-1.527
	c-0.746-0.976-1.069-1.592-1.069-3.055c0-4.322,2.043-7.474,5.61-9.813c0.292,0.065,0.908,0.325,1.135,0.325
	c0.065,0,0.065-0.032,0.065-0.065c0-0.163-0.616-0.487-0.713-0.553c0.421-0.357,1.135-0.714,1.394-0.714
	c1.233,0,2.4,1.3,2.952,2.177c0.843,1.3,0.843,2.762,0.843,3.704C43.429,19.66,39.31,24.793,37.396,24.793z M39.438,14.525
	c-0.323-0.39-0.81-0.845-1.134-0.845c-1.525,0-2.465,3.704-2.465,4.939c0,1.04,0.13,3.054,1.589,3.054
	c2.01,0,2.498-3.899,2.498-5.329C39.926,15.663,39.829,14.98,39.438,14.525z"/>
<path id="R" fill="#D2CFCE" d="M48.456,20.244c-0.259,0.78-0.811,3.867-0.973,4.874c0,0.098-0.064,0.228-0.228,0.228
	c-0.292,0-1.297-0.26-1.297-0.617s0.097-0.65,0.097-1.007c0-0.097-0.064-0.163-0.161-0.163c-0.26,0-0.26,0.715-0.552,0.715
	c-0.617,0-0.941-0.488-0.941-1.462c0-4.096,0.617-9.034,1.719-12.706c0.033-0.163,0.227-0.357,0.421-0.357
	c0.292,0,0.584,0.747,0.584,0.877c0,0.227-0.194,0.617-0.194,0.91c0,0.065,0.065,0.26,0.162,0.26c0.292,0,0.292-0.65,0.649-0.65
	c0.098,0,0.616,0.261,0.616,0.553c0,0.26-0.162,0.747-0.162,1.04c0,0.064,0.097,0.162,0.195,0.162c0.259,0,0.323-0.845,0.551-0.845
	c0.162,0,0.454,0.195,0.454,0.39c0,1.04-1.297,3.314-1.297,5.134h0.065c0.454-0.845,1.492-3.054,2.626-3.054
	c0.292,0,1.038,0.228,1.038,0.648c0,0.456-0.324,0.781-0.324,0.813c0,0,0,0.064,0.033,0.064c0.065,0,0.227-0.194,0.259-0.194
	c0.032,0,0.032,0.033,0.032,0.033c0,0.032-0.065,0.097-0.065,0.129c0,0.065,0.033,0.163,0.065,0.228
	c0.162-0.162,0.325-0.325,0.421-0.325c0.195,0,0.422,0.26,0.422,0.358c0,1.04-0.519,2.079-1.167,2.924
	c0.227,0.033,0.421,0.033,0.649,0.033c0.357,0,0.972-0.195,1.297-0.358c0,0.877-0.876,0.714-0.876,0.91
	c0,0.098,0.065,0.163,0.13,0.163s0.196-0.065,0.292-0.065c0.065,0,0.097,0.033,0.097,0.098c0,0.227-0.193,0.357-0.356,0.422v0.065
	c0.26,0,0.584-0.065,0.746-0.13c-0.097,1.332-2.335,1.625-2.854,1.625C49.429,21.966,48.943,21.187,48.456,20.244z"/>
<path id="B" fill="#D2CFCE" d="M63.635,7.701c0-0.163-0.292-0.26-0.292-0.455c0-0.13,0.227-0.228,0.227-0.39
	c0-0.39-0.715-0.099-0.715-0.585c0-0.389,0.553-0.422,0.553-0.682c0-0.325-0.681-0.195-0.681-0.52c0-0.683,3.859-1.592,4.151-1.885
	l0.129-0.129C67.267,2.795,67.72,0,68.208,0c0.357,0,0.292,0.617,0.455,0.617c0.162,0,0.324-0.13,0.454-0.13
	c0.26,0,0.325,0.228,0.325,0.455c0,0.195-0.13,0.521-0.13,0.748c0,0.097,0.032,0.162,0.13,0.162c0.26,0,0.292-0.455,0.551-0.455
	c0.228,0,0.39,0.455,0.551,0.455c0.519,0,3.794-1.397,4.541-1.397c1.589,0,3.632,2.535,3.632,4.387c0,4.452-5.06,7.929-5.06,8.546
	c0,0.098,0.065,0.229,0.227,0.229c0.357,0,0.682-0.066,1.038-0.066c2.237,0,3.275,1.657,3.275,3.737
	c0,4.679-4.119,10.561-4.897,11.568C72.814,29.473,72.165,31,71.711,31c-0.098,0-0.227-0.228-0.227-0.357
	c0-0.325,0.259-0.162,0.259-0.487c0-0.161-0.098-0.228-0.195-0.228c-0.162,0-0.227,0.195-0.518,0.195
	c-0.163,0-0.228-0.163-0.228-0.292c0-0.39,0.649-0.714,0.649-0.943c0-0.13-0.097-0.325-0.227-0.325
	c-0.163,0-0.422,0.292-0.909,0.292c-0.227,0-0.39-0.162-0.39-0.292c0-0.325,0.39-0.455,0.39-0.877c0-0.097-0.097-0.163-0.194-0.163
	c-0.162,0-0.227,0.098-0.389,0.098c-0.097,0-0.195-0.098-0.195-0.26c0-0.65,1.687-1.853,3.341-5.654
	c0.358-0.812,0.844-1.95,0.844-2.892c0-1.982-1.168-2.145-2.887-2.145c-0.487,0-2.303,0.228-2.368,0.78
	c-0.096,0.877-0.713,5.686-0.747,6.207c-0.032,1.527-0.128,2.015-0.582,2.015c-0.292,0-0.422-0.195-0.422-0.422
	c0-0.26,0.032-0.52,0.032-0.781c0-0.194,0.065-0.551-0.227-0.551c-0.292,0-0.162,0.617-0.519,0.617
	c-0.259,0-0.325-0.682-0.486-0.682c-0.357,0-0.195,0.357-0.487,0.357c-0.193,0-0.259-0.195-0.259-0.357
	c0-0.293,0.066-0.585,0.032-0.877c0-0.163-0.065-0.358-0.259-0.358c-0.26,0-0.227,0.422-0.455,0.422
	c-0.227,0-0.259-0.195-0.259-0.585c0-0.26,1.492-12.965,1.979-14.232c0.065-0.163,0.065-0.357,0.065-0.52
	c0-0.13-0.097-0.26-0.228-0.26c-0.486,0-1.816,1.04-2.334,1.04c-0.098,0-0.195-0.065-0.195-0.228
	C63.116,7.929,63.635,7.896,63.635,7.701z M68.857,12.835c1.622-1.204,5.578-4.81,5.578-6.987c0-0.648-0.323-1.105-0.875-1.105
	c-0.681,0-2.951,0.845-3.665,1.593c-0.193,1.04-0.746,4.257-1.103,6.304L68.857,12.835z"/>
<path id="L_1_" fill="#D2CFCE" d="M85.074,16.085c-0.195,0.39-0.324,0.52-0.519,0.52c-0.13,0-0.13-0.099-0.13-0.195
	c0-0.195,1.103-2.339,1.103-2.568c0-0.097-0.033-0.259-0.163-0.259c-0.129,0-0.162,0.39-0.422,0.39
	c-0.097,0-0.129-0.065-0.129-0.163c0-0.097,0.811-1.365,1.233-4.159c0.096-0.65,0.259-1.3,0.259-1.982
	c0-0.325-0.13-0.812-0.39-0.812c-0.551,0-0.713,1.202-0.875,2.015c-0.649,3.314-1.914,7.831-1.914,11.503
	c0,0.26,0.098,0.618,0.421,0.618c1.038,0,2.79-1.787,2.952-1.787c0.097,0,0.097,0.064,0.097,0.129c0,0.195-0.486,0.553-0.486,0.845
	c0,0.228,0.195,0.357,0.195,0.487c0,0.228-0.227,0.325-0.227,0.455c0,0.033,0.032,0.065,0.097,0.065c0.13,0,0.227-0.098,0.324-0.098
	c0.162,0,0.292,0.098,0.292,0.26c0,0.943-3.762,4.322-4.995,4.322c-0.778,0-1.913-2.145-2.14-2.697
	c-0.195-0.455-0.228-1.365-0.228-3.022c0-4.614,2.465-13.063,2.919-16.605c0.163-1.169,0.681-2.892,1.622-2.892
	c0.292,0,0.389,0.195,0.389,0.455s-0.097,0.52-0.13,0.812c0,0.13,0.033,0.228,0.162,0.228c0.195,0,0.13-0.812,0.551-0.812
	c0.552,0,0.099,0.877,0.487,0.877c0.227,0,0.259-0.228,0.389-0.228c0.584,0,1.459,2.827,1.459,4.517
	C87.279,9.586,86.728,12.771,85.074,16.085z"/>
<path id="E" fill="#D2CFCE" d="M87.215,22.454c-0.227-0.455-0.291-1.397-0.291-2.567c0-3.64,3.599-9.812,7.524-9.812
	c0.778,0,2.529,1.721,2.529,3.574c0,3.249-2.302,4.159-6.551,5.524c0.033,1.299,0.454,2.274,1.946,2.274
	c1.006,0,3.829-1.527,4.184-2.079c0.098-0.131,0.195-0.229,0.323-0.229c0.099,0,0.229,0.065,0.229,0.163
	c0,0.292-0.714,0.877-0.714,1.007c0,0.065,0.098,0.098,0.163,0.098c0.098,0,0.323-0.325,0.421-0.325
	c0.065,0,0.097,0.065,0.097,0.162c0,0.228-0.616,0.812-0.616,1.04c0,0.064,0.032,0.064,0.097,0.064c0.098,0,0.227-0.26,0.356-0.26
	c0.065,0,0.162,0.065,0.162,0.228c0,0.228-0.064,0.521-3.049,2.632c-0.227,0.163-2.399,1.397-3.048,1.397
	C89.258,25.346,87.832,23.688,87.215,22.454z M92.501,13.388c-0.875,0-2.076,4.354-2.076,5.199c0.162-0.032,1.005-0.26,1.005-0.455
	c0-0.292-0.616-0.13-0.616-0.358c0-0.292,1.135-0.52,1.135-0.747c0-0.098-0.26-0.098-0.455-0.098c-0.227,0-0.324-0.064-0.324-0.194
	c0-0.455,2.303-0.942,2.303-1.722C93.475,14.428,93.02,13.388,92.501,13.388z"/>
<path id="N" fill="#D2CFCE" d="M99.701,9.749c0.259,0,0.357,0.326,0.357,0.714v0.326c0,0.487,0.097,0.682,0.194,0.682
	c0.195,0,0.227-0.748,0.649-0.748c0.486,0,0.648,0.163,0.648,0.812c0,0.227-0.065,0.39-0.065,0.52c0,0.098,0.065,0.195,0.13,0.195
	c0.097,0,0.259-0.714,0.616-0.714c0.227,0,0.422,0.292,0.422,0.618c0,0.682-1.46,5.069-1.46,5.751c0,0.163,0.032,0.26,0.163,0.26
	c0.162,0,0.356-0.422,0.648-0.877c1.751-2.859,3.47-5.881,3.73-5.881c0.42,0,0.486,0.324,0.875,0.52
	c0.357,0.163,0.162,0.39,0.357,0.584c0.616,0.229,0.973,0.813,0.973,1.463c0,1.95-0.552,3.705-0.552,5.557
	c0,0.228,0.194,0.293,0.39,0.293c0.421,0,1.167-1.463,1.394-1.463c0.098,0,0.163,0.065,0.163,0.163c0,0.194-0.357,0.357-0.357,0.65
	c0,0.129,0,0.26,0.097,0.357c0.064-0.065,0.195-0.161,0.26-0.161c0.097,0,0.13,0.096,0.13,0.161c0,0.098-0.422,0.618-0.422,0.877
	c0,0.13,0.097,0.13,0.097,0.26c0,0.259-0.323,0.488-0.323,0.618c0,0.064,0.032,0.163,0.129,0.163c0.162,0,0.356-0.39,0.52-0.39
	c0.064,0,0.129,0.065,0.129,0.195c0,0.39-3.017,3.542-3.211,3.77c-0.26,0.26-0.519,0.325-0.713,0.325
	c-0.746,0-1.784-2.145-1.784-2.827c0-1.04,0.195-2.665,0.162-3.185c0-0.26-0.064-0.455-0.194-0.455c-0.422,0-2.983,5.947-3.73,5.947
	c-0.583,0-1.395-0.942-1.621-1.333c-0.454-0.78-0.811-1.527-0.811-2.177C97.691,19.822,98.566,9.749,99.701,9.749z"/>
<path id="D" fill="#D2CFCE" d="M115.659,9.261c0.129,0,0.292,0.032,0.292,0.195c0.033,0.162-0.259,0.584-0.259,0.747
	c0,0.097,0.064,0.228,0.129,0.228c0.098,0,0.227-0.163,0.422-0.163c0.064,0,0.098,0.098,0.098,0.195c0,0.228-0.422,0.65-0.422,0.91
	c0,0.13,0.097,0.163,0.162,0.163c0.195,0,0.357-0.358,0.584-0.358c0.13,0,0.162,0.065,0.162,0.195c0,0.357-0.421,0.942-0.421,1.365
	c0,0.097,0.033,0.129,0.13,0.129c0.097,0,0.454-0.422,0.616-0.422c0.098,0,0.162,0.098,0.162,0.228c0,0.163-0.097,0.293-0.519,0.748
	c-1.622,1.82-3.017,4.452-3.017,6.921c0,0.683,0.454,1.43,1.298,1.43c1.46,0,3.211-2.957,3.211-7.246
	c0-2.08-1.168-4.972-2.271-6.727c-0.259-0.423-2.691-4.062-2.691-4.517c0-0.162,0.065-0.195,0.195-0.195
	c0.389,0,0.875,0.682,1.005,0.682c0.033,0,0.065,0,0.065-0.032c0-0.228-0.552-0.845-0.552-1.137c0-0.195,0.098-0.292,0.259-0.292
	c0.389,0,0.811,0.39,0.876,0.39c0.065,0,0.097-0.065,0.097-0.163c0-0.162-0.486-0.942-0.486-1.137c0-0.097,0.032-0.162,0.162-0.162
	c0.227,0,0-0.293,0.292-0.455c0.259-0.13,0.259-0.195,0.259-0.261c0-0.162,0.194-0.193,0.421-0.193
	c0.617,0,6.259,8.122,6.259,13.776c0,4.777-1.848,7.376-5.481,10.269c-0.648,0.487-1.784,1.3-2.627,1.3
	c-0.875,0-1.718-0.747-3.178-2.274c-0.422-0.455-0.584-1.17-0.617-2.275C110.113,14.785,114.848,9.261,115.659,9.261z"/>
<path id="E_1_" fill="#D2CFCE" d="M123.153,22.454c-0.229-0.455-0.293-1.397-0.293-2.567c0-3.64,3.6-9.812,7.524-9.812
	c0.779,0,2.53,1.721,2.53,3.574c0,3.249-2.303,4.159-6.551,5.524c0.032,1.299,0.454,2.274,1.946,2.274
	c1.005,0,3.827-1.527,4.185-2.079c0.097-0.131,0.194-0.229,0.324-0.229c0.097,0,0.227,0.065,0.227,0.163
	c0,0.292-0.713,0.877-0.713,1.007c0,0.065,0.098,0.098,0.162,0.098c0.097,0,0.324-0.325,0.421-0.325
	c0.065,0,0.098,0.065,0.098,0.162c0,0.228-0.617,0.812-0.617,1.04c0,0.064,0.034,0.064,0.098,0.064c0.097,0,0.227-0.26,0.356-0.26
	c0.064,0,0.162,0.065,0.162,0.228c0,0.228-0.065,0.521-3.049,2.632c-0.227,0.163-2.4,1.397-3.049,1.397
	C125.195,25.346,123.768,23.688,123.153,22.454z M128.438,13.388c-0.876,0-2.076,4.354-2.076,5.199
	c0.162-0.032,1.006-0.26,1.006-0.455c0-0.292-0.616-0.13-0.616-0.358c0-0.292,1.135-0.52,1.135-0.747
	c0-0.098-0.259-0.098-0.454-0.098c-0.227,0-0.325-0.064-0.325-0.194c0-0.455,2.303-0.942,2.303-1.722
	C129.411,14.428,128.957,13.388,128.438,13.388z"/>
<path id="R_1_" fill="#D2CFCE" d="M137.972,20.244c-0.258,0.78-0.809,3.867-0.972,4.874c0,0.098-0.064,0.228-0.227,0.228
	c-0.292,0-1.297-0.26-1.297-0.617s0.098-0.65,0.098-1.007c0-0.097-0.065-0.163-0.162-0.163c-0.259,0-0.259,0.715-0.552,0.715
	c-0.616,0-0.94-0.488-0.94-1.462c0-4.096,0.616-9.034,1.719-12.706c0.032-0.163,0.227-0.357,0.422-0.357
	c0.292,0,0.583,0.747,0.583,0.877c0,0.227-0.193,0.617-0.193,0.91c0,0.065,0.064,0.26,0.162,0.26c0.292,0,0.292-0.65,0.648-0.65
	c0.098,0,0.617,0.261,0.617,0.553c0,0.26-0.162,0.747-0.162,1.04c0,0.064,0.097,0.162,0.195,0.162c0.259,0,0.324-0.845,0.551-0.845
	c0.163,0,0.454,0.195,0.454,0.39c0,1.04-1.297,3.314-1.297,5.134h0.064c0.455-0.845,1.492-3.054,2.627-3.054
	c0.292,0,1.038,0.228,1.038,0.648c0,0.456-0.324,0.781-0.324,0.813c0,0,0,0.064,0.032,0.064c0.065,0,0.228-0.194,0.26-0.194
	c0.032,0,0.032,0.033,0.032,0.033c0,0.032-0.064,0.097-0.064,0.129c0,0.065,0.032,0.163,0.064,0.228
	c0.161-0.162,0.324-0.325,0.422-0.325c0.194,0,0.421,0.26,0.421,0.358c0,1.04-0.519,2.079-1.167,2.924
	c0.227,0.033,0.421,0.033,0.648,0.033c0.357,0,0.973-0.195,1.297-0.358c0,0.877-0.875,0.714-0.875,0.91
	c0,0.098,0.066,0.163,0.13,0.163c0.065,0,0.194-0.065,0.292-0.065c0.065,0,0.098,0.033,0.098,0.098c0,0.227-0.195,0.357-0.357,0.422
	v0.065c0.26,0,0.583-0.065,0.746-0.13c-0.097,1.332-2.334,1.625-2.854,1.625C138.947,21.966,138.46,21.187,137.972,20.244z"/>
<g>
</g>
<g>
</g>
<g>
</g>
<g>
</g>
<g>
</g>
<g>
</g>
<g>
</g>
<g>
</g>
<g>
</g>
<g>
</g>
<g>
</g>
<g>
</g>
<g>
</g>
<g>
</g>
<g>
</g>
</svg>
