<svg version="1.1" class="clipboard-icon" xmlns="http://www.w3.org/2000/svg" xmlns:xlink="http://www.w3.org/1999/xlink" x="0px" y="0px" width="24px" height="32px" viewBox="0 0 24 32">
	<path id="board" d="M18.856,2.78v1.925c0,1.008-0.808,1.828-1.8,1.828H6.942c-0.991,0-1.799-0.819-1.799-1.828V2.78H0v26.783
		C0,30.911,1.075,32,2.4,32H21.6c1.326,0,2.4-1.09,2.4-2.438V2.78H18.856z M20.999,28.955h-18V9.257h18V28.955z"/>
	<rect id="line-top" x="6.256" y="12.369" width="11.47" height="2.436"/>
	<rect id="line-middle" x="6.312" y="17.299" width="11.471" height="2.436"/>
	<rect id="line-bottom" x="6.369" y="22.229" width="4.651" height="2.437"/>
	<path id="clip" d="M6.942,5.314h10.114c0.332,0,0.601-0.272,0.601-0.609V2.78h-2.658V1.218c0-0.672-0.537-1.218-1.2-1.218h-3.6
		C9.537,0,8.999,0.546,8.999,1.218V2.78H6.342v1.925C6.342,5.042,6.611,5.314,6.942,5.314z"/>
</svg>
